<svg xmlns="http://www.w3.org/2000/svg" version="1.1" xmlns:xlink="http://www.w3.org/1999/xlink" xmlns:svgjs="http://svgjs.com/svgjs" width="1440" height="560" preserveAspectRatio="none" viewBox="0 0 1440 560"><g mask="url(&quot;#SvgjsMask1000&quot;)" fill="none"><rect width="1440" height="560" x="0" y="0" fill="#0e2a47"></rect><path d="M-107.07 409.65L-107.07 409.65" stroke="#132e65" stroke-width="1.5"></path><path d="M-107.07 409.65L-63.32 522.35" stroke="#132e65" stroke-width="1.5"></path><path d="M-107.07 409.65L52.87 337.82" stroke="#132e65" stroke-width="1.5"></path><path d="M-107.07 409.65L55.91 494.62" stroke="#132e65" stroke-width="1.5"></path><path d="M-107.07 409.65L-89.58 651.3" stroke="#132e65" stroke-width="1.5"></path><path d="M-107.07 409.65L197.58 498.26" stroke="#132e65" stroke-width="1.5"></path><path d="M-63.32 522.35L-63.32 522.35" stroke="#132e65" stroke-width="1.5"></path><path d="M-63.32 522.35L55.91 494.62" stroke="#132e65" stroke-width="1.5"></path><path d="M-63.32 522.35L-89.58 651.3" stroke="#132e65" stroke-width="1.5"></path><path d="M-63.32 522.35L52.87 337.82" stroke="#132e65" stroke-width="1.5"></path><path d="M-89.58 651.3L-89.58 651.3" stroke="#132e65" stroke-width="1.5"></path><path d="M-89.58 651.3L55.91 494.62" stroke="#132e65" stroke-width="1.5"></path><path d="M-89.58 651.3L197.58 498.26" stroke="#132e65" stroke-width="1.5"></path><path d="M-89.58 651.3L52.87 337.82" stroke="#132e65" stroke-width="1.5"></path><path d="M52.87 337.82L52.87 337.82" stroke="#132e65" stroke-width="1.5"></path><path d="M52.87 337.82L55.91 494.62" stroke="#132e65" stroke-width="1.5"></path><path d="M52.87 337.82L248.94 390" stroke="#132e65" stroke-width="1.5"></path><path d="M52.87 337.82L197.58 498.26" stroke="#132e65" stroke-width="1.5"></path><path d="M55.91 494.62L55.91 494.62" stroke="#132e65" stroke-width="1.5"></path><path d="M55.91 494.62L197.58 498.26" stroke="#132e65" stroke-width="1.5"></path><path d="M248.94 390L248.94 390" stroke="#132e65" stroke-width="1.5"></path><path d="M248.94 390L197.58 498.26" stroke="#132e65" stroke-width="1.5"></path><path d="M248.94 390L387.77 383.93" stroke="#132e65" stroke-width="1.5"></path><path d="M248.94 390L370.71 519" stroke="#132e65" stroke-width="1.5"></path><path d="M248.94 390L55.91 494.62" stroke="#132e65" stroke-width="1.5"></path><path d="M248.94 390L255.12 672.61" stroke="#132e65" stroke-width="1.5"></path><path d="M197.58 498.26L197.58 498.26" stroke="#132e65" stroke-width="1.5"></path><path d="M197.58 498.26L370.71 519" stroke="#132e65" stroke-width="1.5"></path><path d="M255.12 672.61L255.12 672.61" stroke="#132e65" stroke-width="1.5"></path><path d="M255.12 672.61L396.27 680.5" stroke="#132e65" stroke-width="1.5"></path><path d="M255.12 672.61L197.58 498.26" stroke="#132e65" stroke-width="1.5"></path><path d="M255.12 672.61L370.71 519" stroke="#132e65" stroke-width="1.5"></path><path d="M255.12 672.61L55.91 494.62" stroke="#132e65" stroke-width="1.5"></path><path d="M255.12 672.61L532.76 693.79" stroke="#132e65" stroke-width="1.5"></path><path d="M387.77 383.93L387.77 383.93" stroke="#132e65" stroke-width="1.5"></path><path d="M387.77 383.93L370.71 519" stroke="#132e65" stroke-width="1.5"></path><path d="M387.77 383.93L545.38 383.26" stroke="#132e65" stroke-width="1.5"></path><path d="M387.77 383.93L197.58 498.26" stroke="#132e65" stroke-width="1.5"></path><path d="M387.77 383.93L396.27 680.5" stroke="#132e65" stroke-width="1.5"></path><path d="M370.71 519L370.71 519" stroke="#132e65" stroke-width="1.5"></path><path d="M370.71 519L396.27 680.5" stroke="#132e65" stroke-width="1.5"></path><path d="M396.27 680.5L396.27 680.5" stroke="#132e65" stroke-width="1.5"></path><path d="M396.27 680.5L532.76 693.79" stroke="#132e65" stroke-width="1.5"></path><path d="M396.27 680.5L197.58 498.26" stroke="#132e65" stroke-width="1.5"></path><path d="M396.27 680.5L685.7 699.85" stroke="#132e65" stroke-width="1.5"></path><path d="M545.38 383.26L545.38 383.26" stroke="#132e65" stroke-width="1.5"></path><path d="M545.38 383.26L701.52 353.63" stroke="#132e65" stroke-width="1.5"></path><path d="M545.38 383.26L687.68 234.87" stroke="#132e65" stroke-width="1.5"></path><path d="M532.76 693.79L532.76 693.79" stroke="#132e65" stroke-width="1.5"></path><path d="M532.76 693.79L685.7 699.85" stroke="#132e65" stroke-width="1.5"></path><path d="M532.76 693.79L370.71 519" stroke="#132e65" stroke-width="1.5"></path><path d="M532.76 693.79L803.27 687.83" stroke="#132e65" stroke-width="1.5"></path><path d="M687.68 234.87L687.68 234.87" stroke="#132e65" stroke-width="1.5"></path><path d="M687.68 234.87L701.52 353.63" stroke="#132e65" stroke-width="1.5"></path><path d="M687.68 234.87L855.46 251.95" stroke="#132e65" stroke-width="1.5"></path><path d="M701.52 353.63L701.52 353.63" stroke="#132e65" stroke-width="1.5"></path><path d="M701.52 353.63L855.46 251.95" stroke="#132e65" stroke-width="1.5"></path><path d="M701.52 353.63L973.86 400.37" stroke="#132e65" stroke-width="1.5"></path><path d="M701.52 353.63L861.5 89.8" stroke="#132e65" stroke-width="1.5"></path><path d="M685.7 699.85L685.7 699.85" stroke="#132e65" stroke-width="1.5"></path><path d="M685.7 699.85L803.27 687.83" stroke="#132e65" stroke-width="1.5"></path><path d="M685.7 699.85L956.55 667.42" stroke="#132e65" stroke-width="1.5"></path><path d="M685.7 699.85L974.89 561.14" stroke="#132e65" stroke-width="1.5"></path><path d="M861.5 89.8L861.5 89.8" stroke="#132e65" stroke-width="1.5"></path><path d="M861.5 89.8L965.99 65.4" stroke="#132e65" stroke-width="1.5"></path><path d="M861.5 89.8L855.46 251.95" stroke="#132e65" stroke-width="1.5"></path><path d="M855.46 251.95L855.46 251.95" stroke="#132e65" stroke-width="1.5"></path><path d="M855.46 251.95L995.6 242.53" stroke="#132e65" stroke-width="1.5"></path><path d="M803.27 687.83L803.27 687.83" stroke="#132e65" stroke-width="1.5"></path><path d="M803.27 687.83L956.55 667.42" stroke="#132e65" stroke-width="1.5"></path><path d="M803.27 687.83L974.89 561.14" stroke="#132e65" stroke-width="1.5"></path><path d="M803.27 687.83L1094.77 680.31" stroke="#132e65" stroke-width="1.5"></path><path d="M985.96 -39L985.96 -39" stroke="#132e65" stroke-width="1.5"></path><path d="M985.96 -39L965.99 65.4" stroke="#132e65" stroke-width="1.5"></path><path d="M985.96 -39L1092.49 -61.77" stroke="#132e65" stroke-width="1.5"></path><path d="M985.96 -39L861.5 89.8" stroke="#132e65" stroke-width="1.5"></path><path d="M965.99 65.4L965.99 65.4" stroke="#132e65" stroke-width="1.5"></path><path d="M965.99 65.4L1115.86 95.29" stroke="#132e65" stroke-width="1.5"></path><path d="M965.99 65.4L1092.49 -61.77" stroke="#132e65" stroke-width="1.5"></path><path d="M965.99 65.4L995.6 242.53" stroke="#132e65" stroke-width="1.5"></path><path d="M995.6 242.53L995.6 242.53" stroke="#132e65" stroke-width="1.5"></path><path d="M995.6 242.53L1108.12 245.07" stroke="#132e65" stroke-width="1.5"></path><path d="M973.86 400.37L973.86 400.37" stroke="#132e65" stroke-width="1.5"></path><path d="M973.86 400.37L995.6 242.53" stroke="#132e65" stroke-width="1.5"></path><path d="M973.86 400.37L1129.88 361.59" stroke="#132e65" stroke-width="1.5"></path><path d="M974.89 561.14L974.89 561.14" stroke="#132e65" stroke-width="1.5"></path><path d="M974.89 561.14L956.55 667.42" stroke="#132e65" stroke-width="1.5"></path><path d="M974.89 561.14L973.86 400.37" stroke="#132e65" stroke-width="1.5"></path><path d="M956.55 667.42L956.55 667.42" stroke="#132e65" stroke-width="1.5"></path><path d="M956.55 667.42L1094.77 680.31" stroke="#132e65" stroke-width="1.5"></path><path d="M1092.49 -61.77L1092.49 -61.77" stroke="#132e65" stroke-width="1.5"></path><path d="M1092.49 -61.77L1115.86 95.29" stroke="#132e65" stroke-width="1.5"></path><path d="M1115.86 95.29L1115.86 95.29" stroke="#132e65" stroke-width="1.5"></path><path d="M1115.86 95.29L1108.12 245.07" stroke="#132e65" stroke-width="1.5"></path><path d="M1115.86 95.29L1302.42 92.46" stroke="#132e65" stroke-width="1.5"></path><path d="M1108.12 245.07L1108.12 245.07" stroke="#132e65" stroke-width="1.5"></path><path d="M1108.12 245.07L1129.88 361.59" stroke="#132e65" stroke-width="1.5"></path><path d="M1108.12 245.07L1286.26 192.16" stroke="#132e65" stroke-width="1.5"></path><path d="M1129.88 361.59L1129.88 361.59" stroke="#132e65" stroke-width="1.5"></path><path d="M1129.88 361.59L1243.23 493.91" stroke="#132e65" stroke-width="1.5"></path><path d="M1129.88 361.59L995.6 242.53" stroke="#132e65" stroke-width="1.5"></path><path d="M1129.88 361.59L1286.26 192.16" stroke="#132e65" stroke-width="1.5"></path><path d="M1129.88 361.59L974.89 561.14" stroke="#132e65" stroke-width="1.5"></path><path d="M1094.77 680.31L1094.77 680.31" stroke="#132e65" stroke-width="1.5"></path><path d="M1094.77 680.31L974.89 561.14" stroke="#132e65" stroke-width="1.5"></path><path d="M1094.77 680.31L1305.02 681.07" stroke="#132e65" stroke-width="1.5"></path><path d="M1094.77 680.31L1243.23 493.91" stroke="#132e65" stroke-width="1.5"></path><path d="M1257.44 -91.37L1257.44 -91.37" stroke="#132e65" stroke-width="1.5"></path><path d="M1257.44 -91.37L1419.06 -63.44" stroke="#132e65" stroke-width="1.5"></path><path d="M1257.44 -91.37L1092.49 -61.77" stroke="#132e65" stroke-width="1.5"></path><path d="M1257.44 -91.37L1302.42 92.46" stroke="#132e65" stroke-width="1.5"></path><path d="M1257.44 -91.37L1115.86 95.29" stroke="#132e65" stroke-width="1.5"></path><path d="M1257.44 -91.37L1431.35 79.57" stroke="#132e65" stroke-width="1.5"></path><path d="M1257.44 -91.37L985.96 -39" stroke="#132e65" stroke-width="1.5"></path><path d="M1302.42 92.46L1302.42 92.46" stroke="#132e65" stroke-width="1.5"></path><path d="M1302.42 92.46L1286.26 192.16" stroke="#132e65" stroke-width="1.5"></path><path d="M1302.42 92.46L1431.35 79.57" stroke="#132e65" stroke-width="1.5"></path><path d="M1286.26 192.16L1286.26 192.16" stroke="#132e65" stroke-width="1.5"></path><path d="M1286.26 192.16L1409.28 247.17" stroke="#132e65" stroke-width="1.5"></path><path d="M1243.23 493.91L1243.23 493.91" stroke="#132e65" stroke-width="1.5"></path><path d="M1243.23 493.91L1422.21 548.19" stroke="#132e65" stroke-width="1.5"></path><path d="M1243.23 493.91L1305.02 681.07" stroke="#132e65" stroke-width="1.5"></path><path d="M1305.02 681.07L1305.02 681.07" stroke="#132e65" stroke-width="1.5"></path><path d="M1305.02 681.07L1461.86 698.15" stroke="#132e65" stroke-width="1.5"></path><path d="M1305.02 681.07L1422.21 548.19" stroke="#132e65" stroke-width="1.5"></path><path d="M1305.02 681.07L1567.58 666" stroke="#132e65" stroke-width="1.5"></path><path d="M1305.02 681.07L1604.95 524.84" stroke="#132e65" stroke-width="1.5"></path><path d="M1419.06 -63.44L1419.06 -63.44" stroke="#132e65" stroke-width="1.5"></path><path d="M1419.06 -63.44L1552.71 -90.31" stroke="#132e65" stroke-width="1.5"></path><path d="M1419.06 -63.44L1431.35 79.57" stroke="#132e65" stroke-width="1.5"></path><path d="M1419.06 -63.44L1302.42 92.46" stroke="#132e65" stroke-width="1.5"></path><path d="M1431.35 79.57L1431.35 79.57" stroke="#132e65" stroke-width="1.5"></path><path d="M1431.35 79.57L1409.28 247.17" stroke="#132e65" stroke-width="1.5"></path><path d="M1431.35 79.57L1606.2 99.34" stroke="#132e65" stroke-width="1.5"></path><path d="M1409.28 247.17L1409.28 247.17" stroke="#132e65" stroke-width="1.5"></path><path d="M1409.28 247.17L1423.8 363.67" stroke="#132e65" stroke-width="1.5"></path><path d="M1409.28 247.17L1560.93 245.25" stroke="#132e65" stroke-width="1.5"></path><path d="M1423.8 363.67L1423.8 363.67" stroke="#132e65" stroke-width="1.5"></path><path d="M1423.8 363.67L1584.05 368.07" stroke="#132e65" stroke-width="1.5"></path><path d="M1422.21 548.19L1422.21 548.19" stroke="#132e65" stroke-width="1.5"></path><path d="M1422.21 548.19L1461.86 698.15" stroke="#132e65" stroke-width="1.5"></path><path d="M1461.86 698.15L1461.86 698.15" stroke="#132e65" stroke-width="1.5"></path><path d="M1461.86 698.15L1567.58 666" stroke="#132e65" stroke-width="1.5"></path><path d="M1552.71 -90.31L1552.71 -90.31" stroke="#132e65" stroke-width="1.5"></path><path d="M1552.71 -90.31L1606.2 99.34" stroke="#132e65" stroke-width="1.5"></path><path d="M1552.71 -90.31L1431.35 79.57" stroke="#132e65" stroke-width="1.5"></path><path d="M1552.71 -90.31L1257.44 -91.37" stroke="#132e65" stroke-width="1.5"></path><path d="M1606.2 99.34L1606.2 99.34" stroke="#132e65" stroke-width="1.5"></path><path d="M1606.2 99.34L1560.93 245.25" stroke="#132e65" stroke-width="1.5"></path><path d="M1606.2 99.34L1409.28 247.17" stroke="#132e65" stroke-width="1.5"></path><path d="M1606.2 99.34L1419.06 -63.44" stroke="#132e65" stroke-width="1.5"></path><path d="M1560.93 245.25L1560.93 245.25" stroke="#132e65" stroke-width="1.5"></path><path d="M1560.93 245.25L1584.05 368.07" stroke="#132e65" stroke-width="1.5"></path><path d="M1584.05 368.07L1584.05 368.07" stroke="#132e65" stroke-width="1.5"></path><path d="M1584.05 368.07L1604.95 524.84" stroke="#132e65" stroke-width="1.5"></path><path d="M1604.95 524.84L1604.95 524.84" stroke="#132e65" stroke-width="1.5"></path><path d="M1604.95 524.84L1567.58 666" stroke="#132e65" stroke-width="1.5"></path><path d="M1604.95 524.84L1422.21 548.19" stroke="#132e65" stroke-width="1.5"></path><path d="M1604.95 524.84L1461.86 698.15" stroke="#132e65" stroke-width="1.5"></path><path d="M1567.58 666L1567.58 666" stroke="#132e65" stroke-width="1.5"></path><path d="M1567.58 666L1422.21 548.19" stroke="#132e65" stroke-width="1.5"></path><circle r="5" cx="-107.07" cy="409.65" fill="#132e65"></circle><circle r="5" cx="-63.32" cy="522.35" fill="#132e65"></circle><circle r="5" cx="-89.58" cy="651.3" fill="#132e65"></circle><circle r="5" cx="52.87" cy="337.82" fill="#132e65"></circle><circle r="5" cx="55.91" cy="494.62" fill="#132e65"></circle><circle r="5" cx="248.94" cy="390" fill="#132e65"></circle><circle r="5" cx="197.58" cy="498.26" fill="#132e65"></circle><circle r="5" cx="255.12" cy="672.61" fill="#132e65"></circle><circle r="5" cx="387.77" cy="383.93" fill="#132e65"></circle><circle r="5" cx="370.71" cy="519" fill="#132e65"></circle><circle r="5" cx="396.27" cy="680.5" fill="#132e65"></circle><circle r="5" cx="545.38" cy="383.26" fill="#132e65"></circle><circle r="5" cx="532.76" cy="693.79" fill="#132e65"></circle><circle r="5" cx="687.68" cy="234.87" fill="#132e65"></circle><circle r="5" cx="701.52" cy="353.63" fill="#132e65"></circle><circle r="5" cx="685.7" cy="699.85" fill="#132e65"></circle><circle r="5" cx="861.5" cy="89.8" fill="#132e65"></circle><circle r="5" cx="855.46" cy="251.95" fill="#132e65"></circle><circle r="5" cx="803.27" cy="687.83" fill="#132e65"></circle><circle r="5" cx="985.96" cy="-39" fill="#132e65"></circle><circle r="5" cx="965.99" cy="65.4" fill="#132e65"></circle><circle r="5" cx="995.6" cy="242.53" fill="#132e65"></circle><circle r="5" cx="973.86" cy="400.37" fill="#132e65"></circle><circle r="5" cx="974.89" cy="561.14" fill="#132e65"></circle><circle r="5" cx="956.55" cy="667.42" fill="#132e65"></circle><circle r="5" cx="1092.49" cy="-61.77" fill="#132e65"></circle><circle r="5" cx="1115.86" cy="95.29" fill="#132e65"></circle><circle r="5" cx="1108.12" cy="245.07" fill="#132e65"></circle><circle r="5" cx="1129.88" cy="361.59" fill="#132e65"></circle><circle r="5" cx="1094.77" cy="680.31" fill="#132e65"></circle><circle r="5" cx="1257.44" cy="-91.37" fill="#132e65"></circle><circle r="5" cx="1302.42" cy="92.46" fill="#132e65"></circle><circle r="5" cx="1286.26" cy="192.16" fill="#132e65"></circle><circle r="5" cx="1243.23" cy="493.91" fill="#132e65"></circle><circle r="5" cx="1305.02" cy="681.07" fill="#132e65"></circle><circle r="5" cx="1419.06" cy="-63.44" fill="#132e65"></circle><circle r="5" cx="1431.35" cy="79.57" fill="#132e65"></circle><circle r="5" cx="1409.28" cy="247.17" fill="#132e65"></circle><circle r="5" cx="1423.8" cy="363.67" fill="#132e65"></circle><circle r="5" cx="1422.21" cy="548.19" fill="#132e65"></circle><circle r="5" cx="1461.86" cy="698.15" fill="#132e65"></circle><circle r="5" cx="1552.71" cy="-90.31" fill="#132e65"></circle><circle r="5" cx="1606.2" cy="99.34" fill="#132e65"></circle><circle r="5" cx="1560.93" cy="245.25" fill="#132e65"></circle><circle r="5" cx="1584.05" cy="368.07" fill="#132e65"></circle><circle r="5" cx="1604.95" cy="524.84" fill="#132e65"></circle><circle r="5" cx="1567.58" cy="666" fill="#132e65"></circle><path d="M-111.86 527.63L-111.86 527.63" stroke="hsl(228.5, 77.2%, 51.5%)" stroke-width="1.5"></path><path d="M-111.86 527.63L51.14 543.73" stroke="hsl(228.5, 77.2%, 51.5%)" stroke-width="1.5"></path><path d="M-111.86 527.63L-60.14 685.42" stroke="hsl(228.5, 77.2%, 51.5%)" stroke-width="1.5"></path><path d="M-111.86 527.63L205.23 487.57" stroke="hsl(228.5, 77.2%, 51.5%)" stroke-width="1.5"></path><path d="M-60.14 685.42L-60.14 685.42" stroke="hsl(228.5, 77.2%, 51.5%)" stroke-width="1.5"></path><path d="M-60.14 685.42L51.14 543.73" stroke="hsl(228.5, 77.2%, 51.5%)" stroke-width="1.5"></path><path d="M-60.14 685.42L241.93 645.51" stroke="hsl(228.5, 77.2%, 51.5%)" stroke-width="1.5"></path><path d="M205.23 487.57L205.23 487.57" stroke="hsl(228.5, 77.2%, 51.5%)" stroke-width="1.5"></path><path d="M205.23 487.57L364.76 494.56" stroke="hsl(228.5, 77.2%, 51.5%)" stroke-width="1.5"></path><path d="M205.23 487.57L241.93 645.51" stroke="hsl(228.5, 77.2%, 51.5%)" stroke-width="1.5"></path><path d="M205.23 487.57L51.14 543.73" stroke="hsl(228.5, 77.2%, 51.5%)" stroke-width="1.5"></path><path d="M542.46 489.21L542.46 489.21" stroke="hsl(228.5, 77.2%, 51.5%)" stroke-width="1.5"></path><path d="M542.46 489.21L691.53 503.96" stroke="hsl(228.5, 77.2%, 51.5%)" stroke-width="1.5"></path><path d="M542.46 489.21L364.76 494.56" stroke="hsl(228.5, 77.2%, 51.5%)" stroke-width="1.5"></path><path d="M542.46 489.21L519.23 680.06" stroke="hsl(228.5, 77.2%, 51.5%)" stroke-width="1.5"></path><path d="M542.46 489.21L707.5 361.62" stroke="hsl(228.5, 77.2%, 51.5%)" stroke-width="1.5"></path><path d="M707.5 361.62L707.5 361.62" stroke="hsl(228.5, 77.2%, 51.5%)" stroke-width="1.5"></path><path d="M707.5 361.62L691.53 503.96" stroke="hsl(228.5, 77.2%, 51.5%)" stroke-width="1.5"></path><path d="M707.5 361.62L862.48 545.96" stroke="hsl(228.5, 77.2%, 51.5%)" stroke-width="1.5"></path><path d="M707.5 361.62L979.64 374.18" stroke="hsl(228.5, 77.2%, 51.5%)" stroke-width="1.5"></path><path d="M707.5 361.62L944.21 556.15" stroke="hsl(228.5, 77.2%, 51.5%)" stroke-width="1.5"></path><path d="M707.5 361.62L832.85 670.48" stroke="hsl(228.5, 77.2%, 51.5%)" stroke-width="1.5"></path><path d="M691.53 503.96L691.53 503.96" stroke="hsl(228.5, 77.2%, 51.5%)" stroke-width="1.5"></path><path d="M691.53 503.96L862.48 545.96" stroke="hsl(228.5, 77.2%, 51.5%)" stroke-width="1.5"></path><path d="M691.53 503.96L677.91 699.26" stroke="hsl(228.5, 77.2%, 51.5%)" stroke-width="1.5"></path><path d="M691.53 503.96L832.85 670.48" stroke="hsl(228.5, 77.2%, 51.5%)" stroke-width="1.5"></path><path d="M691.53 503.96L519.23 680.06" stroke="hsl(228.5, 77.2%, 51.5%)" stroke-width="1.5"></path><path d="M862.48 545.96L862.48 545.96" stroke="hsl(228.5, 77.2%, 51.5%)" stroke-width="1.5"></path><path d="M862.48 545.96L944.21 556.15" stroke="hsl(228.5, 77.2%, 51.5%)" stroke-width="1.5"></path><path d="M862.48 545.96L832.85 670.48" stroke="hsl(228.5, 77.2%, 51.5%)" stroke-width="1.5"></path><path d="M1162.37 58.92L1162.37 58.92" stroke="hsl(228.5, 77.2%, 51.5%)" stroke-width="1.5"></path><path d="M1162.37 58.92L1267.33 86.28" stroke="hsl(228.5, 77.2%, 51.5%)" stroke-width="1.5"></path><path d="M1162.37 58.92L1152.37 234.53" stroke="hsl(228.5, 77.2%, 51.5%)" stroke-width="1.5"></path><path d="M1115.99 677.75L1115.99 677.75" stroke="hsl(228.5, 77.2%, 51.5%)" stroke-width="1.5"></path><path d="M1115.99 677.75L1011.07 699.91" stroke="hsl(228.5, 77.2%, 51.5%)" stroke-width="1.5"></path><path d="M1308.81 511.38L1308.81 511.38" stroke="hsl(228.5, 77.2%, 51.5%)" stroke-width="1.5"></path><path d="M1308.81 511.38L1435.18 492.24" stroke="hsl(228.5, 77.2%, 51.5%)" stroke-width="1.5"></path><path d="M1308.81 511.38L1293.85 666.9" stroke="hsl(228.5, 77.2%, 51.5%)" stroke-width="1.5"></path><path d="M1308.81 511.38L1134.51 544.65" stroke="hsl(228.5, 77.2%, 51.5%)" stroke-width="1.5"></path><path d="M1308.81 511.38L1390.53 683.08" stroke="hsl(228.5, 77.2%, 51.5%)" stroke-width="1.5"></path><path d="M1541.36 209.16L1541.36 209.16" stroke="hsl(228.5, 77.2%, 51.5%)" stroke-width="1.5"></path><path d="M1541.36 209.16L1419.86 197.97" stroke="hsl(228.5, 77.2%, 51.5%)" stroke-width="1.5"></path><path d="M1541.36 209.16L1547.82 82" stroke="hsl(228.5, 77.2%, 51.5%)" stroke-width="1.5"></path><path d="M1541.36 209.16L1457.43 345.4" stroke="hsl(228.5, 77.2%, 51.5%)" stroke-width="1.5"></path><path d="M1541.36 209.16L1434.71 46.46" stroke="hsl(228.5, 77.2%, 51.5%)" stroke-width="1.5"></path><path d="M1541.36 209.16L1312.29 203.26" stroke="hsl(228.5, 77.2%, 51.5%)" stroke-width="1.5"></path><path d="M51.14 543.73L51.14 543.73" stroke="hsl(228.5, 77.2%, 51.5%)" stroke-width="1.5"></path><path d="M51.14 543.73L241.93 645.51" stroke="hsl(228.5, 77.2%, 51.5%)" stroke-width="1.5"></path><path d="M51.14 543.73L364.76 494.56" stroke="hsl(228.5, 77.2%, 51.5%)" stroke-width="1.5"></path><path d="M241.93 645.51L241.93 645.51" stroke="hsl(228.5, 77.2%, 51.5%)" stroke-width="1.5"></path><path d="M241.93 645.51L378.93 692.53" stroke="hsl(228.5, 77.2%, 51.5%)" stroke-width="1.5"></path><path d="M241.93 645.51L364.76 494.56" stroke="hsl(228.5, 77.2%, 51.5%)" stroke-width="1.5"></path><path d="M241.93 645.51L519.23 680.06" stroke="hsl(228.5, 77.2%, 51.5%)" stroke-width="1.5"></path><path d="M364.76 494.56L364.76 494.56" stroke="hsl(228.5, 77.2%, 51.5%)" stroke-width="1.5"></path><path d="M364.76 494.56L378.93 692.53" stroke="hsl(228.5, 77.2%, 51.5%)" stroke-width="1.5"></path><path d="M364.76 494.56L519.23 680.06" stroke="hsl(228.5, 77.2%, 51.5%)" stroke-width="1.5"></path><path d="M378.93 692.53L378.93 692.53" stroke="hsl(228.5, 77.2%, 51.5%)" stroke-width="1.5"></path><path d="M378.93 692.53L519.23 680.06" stroke="hsl(228.5, 77.2%, 51.5%)" stroke-width="1.5"></path><path d="M519.23 680.06L519.23 680.06" stroke="hsl(228.5, 77.2%, 51.5%)" stroke-width="1.5"></path><path d="M519.23 680.06L677.91 699.26" stroke="hsl(228.5, 77.2%, 51.5%)" stroke-width="1.5"></path><path d="M677.91 699.26L677.91 699.26" stroke="hsl(228.5, 77.2%, 51.5%)" stroke-width="1.5"></path><path d="M677.91 699.26L832.85 670.48" stroke="hsl(228.5, 77.2%, 51.5%)" stroke-width="1.5"></path><path d="M832.85 670.48L832.85 670.48" stroke="hsl(228.5, 77.2%, 51.5%)" stroke-width="1.5"></path><path d="M832.85 670.48L944.21 556.15" stroke="hsl(228.5, 77.2%, 51.5%)" stroke-width="1.5"></path><path d="M832.85 670.48L1011.07 699.91" stroke="hsl(228.5, 77.2%, 51.5%)" stroke-width="1.5"></path><path d="M979.64 374.18L979.64 374.18" stroke="hsl(228.5, 77.2%, 51.5%)" stroke-width="1.5"></path><path d="M979.64 374.18L1098.25 383.38" stroke="hsl(228.5, 77.2%, 51.5%)" stroke-width="1.5"></path><path d="M979.64 374.18L944.21 556.15" stroke="hsl(228.5, 77.2%, 51.5%)" stroke-width="1.5"></path><path d="M979.64 374.18L862.48 545.96" stroke="hsl(228.5, 77.2%, 51.5%)" stroke-width="1.5"></path><path d="M944.21 556.15L944.21 556.15" stroke="hsl(228.5, 77.2%, 51.5%)" stroke-width="1.5"></path><path d="M944.21 556.15L1011.07 699.91" stroke="hsl(228.5, 77.2%, 51.5%)" stroke-width="1.5"></path><path d="M1011.07 699.91L1011.07 699.91" stroke="hsl(228.5, 77.2%, 51.5%)" stroke-width="1.5"></path><path d="M1152.37 234.53L1152.37 234.53" stroke="hsl(228.5, 77.2%, 51.5%)" stroke-width="1.5"></path><path d="M1152.37 234.53L1098.25 383.38" stroke="hsl(228.5, 77.2%, 51.5%)" stroke-width="1.5"></path><path d="M1152.37 234.53L1312.29 203.26" stroke="hsl(228.5, 77.2%, 51.5%)" stroke-width="1.5"></path><path d="M1152.37 234.53L1267.33 86.28" stroke="hsl(228.5, 77.2%, 51.5%)" stroke-width="1.5"></path><path d="M1152.37 234.53L979.64 374.18" stroke="hsl(228.5, 77.2%, 51.5%)" stroke-width="1.5"></path><path d="M1098.25 383.38L1098.25 383.38" stroke="hsl(228.5, 77.2%, 51.5%)" stroke-width="1.5"></path><path d="M1098.25 383.38L1134.51 544.65" stroke="hsl(228.5, 77.2%, 51.5%)" stroke-width="1.5"></path><path d="M1134.51 544.65L1134.51 544.65" stroke="hsl(228.5, 77.2%, 51.5%)" stroke-width="1.5"></path><path d="M1134.51 544.65L1115.99 677.75" stroke="hsl(228.5, 77.2%, 51.5%)" stroke-width="1.5"></path><path d="M1134.51 544.65L944.21 556.15" stroke="hsl(228.5, 77.2%, 51.5%)" stroke-width="1.5"></path><path d="M1134.51 544.65L1011.07 699.91" stroke="hsl(228.5, 77.2%, 51.5%)" stroke-width="1.5"></path><path d="M1134.51 544.65L1293.85 666.9" stroke="hsl(228.5, 77.2%, 51.5%)" stroke-width="1.5"></path><path d="M1275.87 -104.07L1275.87 -104.07" stroke="hsl(228.5, 77.2%, 51.5%)" stroke-width="1.5"></path><path d="M1275.87 -104.07L1435.92 -60.15" stroke="hsl(228.5, 77.2%, 51.5%)" stroke-width="1.5"></path><path d="M1275.87 -104.07L1267.33 86.28" stroke="hsl(228.5, 77.2%, 51.5%)" stroke-width="1.5"></path><path d="M1275.87 -104.07L1162.37 58.92" stroke="hsl(228.5, 77.2%, 51.5%)" stroke-width="1.5"></path><path d="M1275.87 -104.07L1434.71 46.46" stroke="hsl(228.5, 77.2%, 51.5%)" stroke-width="1.5"></path><path d="M1275.87 -104.07L1312.29 203.26" stroke="hsl(228.5, 77.2%, 51.5%)" stroke-width="1.5"></path><path d="M1275.87 -104.07L1590.78 -37.81" stroke="hsl(228.5, 77.2%, 51.5%)" stroke-width="1.5"></path><path d="M1267.33 86.28L1267.33 86.28" stroke="hsl(228.5, 77.2%, 51.5%)" stroke-width="1.5"></path><path d="M1267.33 86.28L1312.29 203.26" stroke="hsl(228.5, 77.2%, 51.5%)" stroke-width="1.5"></path><path d="M1267.33 86.28L1434.71 46.46" stroke="hsl(228.5, 77.2%, 51.5%)" stroke-width="1.5"></path><path d="M1312.29 203.26L1312.29 203.26" stroke="hsl(228.5, 77.2%, 51.5%)" stroke-width="1.5"></path><path d="M1312.29 203.26L1419.86 197.97" stroke="hsl(228.5, 77.2%, 51.5%)" stroke-width="1.5"></path><path d="M1312.29 203.26L1434.71 46.46" stroke="hsl(228.5, 77.2%, 51.5%)" stroke-width="1.5"></path><path d="M1293.85 666.9L1293.85 666.9" stroke="hsl(228.5, 77.2%, 51.5%)" stroke-width="1.5"></path><path d="M1293.85 666.9L1390.53 683.08" stroke="hsl(228.5, 77.2%, 51.5%)" stroke-width="1.5"></path><path d="M1293.85 666.9L1115.99 677.75" stroke="hsl(228.5, 77.2%, 51.5%)" stroke-width="1.5"></path><path d="M1293.85 666.9L1435.18 492.24" stroke="hsl(228.5, 77.2%, 51.5%)" stroke-width="1.5"></path><path d="M1435.92 -60.15L1435.92 -60.15" stroke="hsl(228.5, 77.2%, 51.5%)" stroke-width="1.5"></path><path d="M1435.92 -60.15L1434.71 46.46" stroke="hsl(228.5, 77.2%, 51.5%)" stroke-width="1.5"></path><path d="M1435.92 -60.15L1590.78 -37.81" stroke="hsl(228.5, 77.2%, 51.5%)" stroke-width="1.5"></path><path d="M1435.92 -60.15L1547.82 82" stroke="hsl(228.5, 77.2%, 51.5%)" stroke-width="1.5"></path><path d="M1435.92 -60.15L1267.33 86.28" stroke="hsl(228.5, 77.2%, 51.5%)" stroke-width="1.5"></path><path d="M1434.71 46.46L1434.71 46.46" stroke="hsl(228.5, 77.2%, 51.5%)" stroke-width="1.5"></path><path d="M1434.71 46.46L1547.82 82" stroke="hsl(228.5, 77.2%, 51.5%)" stroke-width="1.5"></path><path d="M1434.71 46.46L1419.86 197.97" stroke="hsl(228.5, 77.2%, 51.5%)" stroke-width="1.5"></path><path d="M1419.86 197.97L1419.86 197.97" stroke="hsl(228.5, 77.2%, 51.5%)" stroke-width="1.5"></path><path d="M1457.43 345.4L1457.43 345.4" stroke="hsl(228.5, 77.2%, 51.5%)" stroke-width="1.5"></path><path d="M1457.43 345.4L1435.18 492.24" stroke="hsl(228.5, 77.2%, 51.5%)" stroke-width="1.5"></path><path d="M1457.43 345.4L1419.86 197.97" stroke="hsl(228.5, 77.2%, 51.5%)" stroke-width="1.5"></path><path d="M1435.18 492.24L1435.18 492.24" stroke="hsl(228.5, 77.2%, 51.5%)" stroke-width="1.5"></path><path d="M1435.18 492.24L1569.92 526.26" stroke="hsl(228.5, 77.2%, 51.5%)" stroke-width="1.5"></path><path d="M1435.18 492.24L1390.53 683.08" stroke="hsl(228.5, 77.2%, 51.5%)" stroke-width="1.5"></path><path d="M1390.53 683.08L1390.53 683.08" stroke="hsl(228.5, 77.2%, 51.5%)" stroke-width="1.5"></path><path d="M1390.53 683.08L1556.97 706.41" stroke="hsl(228.5, 77.2%, 51.5%)" stroke-width="1.5"></path><path d="M1390.53 683.08L1569.92 526.26" stroke="hsl(228.5, 77.2%, 51.5%)" stroke-width="1.5"></path><path d="M1390.53 683.08L1115.99 677.75" stroke="hsl(228.5, 77.2%, 51.5%)" stroke-width="1.5"></path><path d="M1590.78 -37.81L1590.78 -37.81" stroke="hsl(228.5, 77.2%, 51.5%)" stroke-width="1.5"></path><path d="M1590.78 -37.81L1547.82 82" stroke="hsl(228.5, 77.2%, 51.5%)" stroke-width="1.5"></path><path d="M1547.82 82L1547.82 82" stroke="hsl(228.5, 77.2%, 51.5%)" stroke-width="1.5"></path><path d="M1569.92 526.26L1569.92 526.26" stroke="hsl(228.5, 77.2%, 51.5%)" stroke-width="1.5"></path><path d="M1569.92 526.26L1556.97 706.41" stroke="hsl(228.5, 77.2%, 51.5%)" stroke-width="1.5"></path><path d="M1569.92 526.26L1457.43 345.4" stroke="hsl(228.5, 77.2%, 51.5%)" stroke-width="1.5"></path><path d="M1556.97 706.41L1556.97 706.41" stroke="hsl(228.5, 77.2%, 51.5%)" stroke-width="1.5"></path><path d="M1556.97 706.41L1435.18 492.24" stroke="hsl(228.5, 77.2%, 51.5%)" stroke-width="1.5"></path><path d="M1556.97 706.41L1293.85 666.9" stroke="hsl(228.5, 77.2%, 51.5%)" stroke-width="1.5"></path><path d="M1556.97 706.41L1308.81 511.38" stroke="hsl(228.5, 77.2%, 51.5%)" stroke-width="1.5"></path><path d="M1556.97 706.41L1457.43 345.4" stroke="hsl(228.5, 77.2%, 51.5%)" stroke-width="1.5"></path><circle r="25" cx="-111.86" cy="527.63" fill="url(#SvgjsRadialGradient1001)"></circle><circle r="25" cx="-60.14" cy="685.42" fill="url(#SvgjsRadialGradient1001)"></circle><circle r="25" cx="205.23" cy="487.57" fill="url(#SvgjsRadialGradient1001)"></circle><circle r="25" cx="542.46" cy="489.21" fill="url(#SvgjsRadialGradient1001)"></circle><circle r="25" cx="707.5" cy="361.62" fill="url(#SvgjsRadialGradient1001)"></circle><circle r="25" cx="691.53" cy="503.96" fill="url(#SvgjsRadialGradient1001)"></circle><circle r="25" cx="862.48" cy="545.96" fill="url(#SvgjsRadialGradient1001)"></circle><circle r="25" cx="1162.37" cy="58.92" fill="url(#SvgjsRadialGradient1001)"></circle><circle r="25" cx="1115.99" cy="677.75" fill="url(#SvgjsRadialGradient1001)"></circle><circle r="25" cx="1308.81" cy="511.38" fill="url(#SvgjsRadialGradient1001)"></circle><circle r="25" cx="1541.36" cy="209.16" fill="url(#SvgjsRadialGradient1001)"></circle><circle r="5" cx="51.14" cy="543.73" fill="#8b9ad9"></circle><circle r="5" cx="241.93" cy="645.51" fill="#8b9ad9"></circle><circle r="5" cx="364.76" cy="494.56" fill="#8b9ad9"></circle><circle r="5" cx="378.93" cy="692.53" fill="#8b9ad9"></circle><circle r="5" cx="519.23" cy="680.06" fill="#8b9ad9"></circle><circle r="5" cx="677.91" cy="699.26" fill="#8b9ad9"></circle><circle r="5" cx="832.85" cy="670.48" fill="#8b9ad9"></circle><circle r="5" cx="979.64" cy="374.18" fill="#8b9ad9"></circle><circle r="5" cx="944.21" cy="556.15" fill="#8b9ad9"></circle><circle r="5" cx="1011.07" cy="699.91" fill="#8b9ad9"></circle><circle r="5" cx="1152.37" cy="234.53" fill="#8b9ad9"></circle><circle r="5" cx="1098.25" cy="383.38" fill="#8b9ad9"></circle><circle r="5" cx="1134.51" cy="544.65" fill="#8b9ad9"></circle><circle r="5" cx="1275.87" cy="-104.07" fill="#8b9ad9"></circle><circle r="5" cx="1267.33" cy="86.28" fill="#8b9ad9"></circle><circle r="5" cx="1312.29" cy="203.26" fill="#8b9ad9"></circle><circle r="5" cx="1293.85" cy="666.9" fill="#8b9ad9"></circle><circle r="5" cx="1435.92" cy="-60.15" fill="#8b9ad9"></circle><circle r="5" cx="1434.71" cy="46.46" fill="#8b9ad9"></circle><circle r="5" cx="1419.86" cy="197.97" fill="#8b9ad9"></circle><circle r="5" cx="1457.43" cy="345.4" fill="#8b9ad9"></circle><circle r="5" cx="1435.18" cy="492.24" fill="#8b9ad9"></circle><circle r="5" cx="1390.53" cy="683.08" fill="#8b9ad9"></circle><circle r="5" cx="1590.78" cy="-37.81" fill="#8b9ad9"></circle><circle r="5" cx="1547.82" cy="82" fill="#8b9ad9"></circle><circle r="5" cx="1569.92" cy="526.26" fill="#8b9ad9"></circle><circle r="5" cx="1556.97" cy="706.41" fill="#8b9ad9"></circle></g><defs><mask id="SvgjsMask1000"><rect width="1440" height="560" fill="#ffffff"></rect></mask><radialGradient id="SvgjsRadialGradient1001"><stop stop-color="#ffffff" offset="0.1"></stop><stop stop-color="#1735b3" offset="0.2"></stop><stop stop-color="rgba(23, 53, 179, 0)" offset="1"></stop></radialGradient></defs></svg>