<?xml version="1.0" encoding="UTF-8"?>
<!DOCTYPE svg PUBLIC "-//W3C//DTD SVG 1.1//EN" "http://www.w3.org/Graphics/SVG/1.1/DTD/svg11.dtd">
<!-- Creator: CorelDRAW X8 -->
<svg xmlns="http://www.w3.org/2000/svg" xml:space="preserve" width="118.88mm" height="66.709mm" version="1.1" style="shape-rendering:geometricPrecision; text-rendering:geometricPrecision; image-rendering:optimizeQuality; fill-rule:evenodd; clip-rule:evenodd"
viewBox="0 0 4639692 2603539"
 xmlns:xlink="http://www.w3.org/1999/xlink">
 <defs>
  <style type="text/css">
   <![CDATA[
    .str0 {stroke:#9D9E9E;stroke-width:2973.96}
    .fil24 {fill:none}
    .fil0 {fill:#FEFEFE}
    .fil6 {fill:#010117;fill-rule:nonzero}
    .fil15 {fill:#030231;fill-rule:nonzero}
    .fil8 {fill:#060632;fill-rule:nonzero}
    .fil11 {fill:#0B0754;fill-rule:nonzero}
    .fil20 {fill:#3662C1;fill-rule:nonzero}
    .fil7 {fill:#3A49CD;fill-rule:nonzero}
    .fil22 {fill:#3A65C2;fill-rule:nonzero}
    .fil10 {fill:#6D89CF;fill-rule:nonzero}
    .fil4 {fill:#93B3F4;fill-rule:nonzero}
    .fil14 {fill:#9E332E;fill-rule:nonzero}
    .fil16 {fill:#A83F3F;fill-rule:nonzero}
    .fil17 {fill:#B05050;fill-rule:nonzero}
    .fil9 {fill:#BED2FA;fill-rule:nonzero}
    .fil5 {fill:#D3E1FC;fill-rule:nonzero}
    .fil3 {fill:#DDE8FD;fill-rule:nonzero}
    .fil1 {fill:#E2ECFE;fill-rule:nonzero}
    .fil18 {fill:#ED6966;fill-rule:nonzero}
    .fil2 {fill:#EEF3FE;fill-rule:nonzero}
    .fil21 {fill:#EFA2A2;fill-rule:nonzero}
    .fil23 {fill:#FA7269;fill-rule:nonzero}
    .fil13 {fill:#FC9290;fill-rule:nonzero}
    .fil12 {fill:#FDA6A4;fill-rule:nonzero}
    .fil19 {fill:white;fill-rule:nonzero}
   ]]>
  </style>
   <clipPath id="id0">
    <path d="M107328 1487l4425036 0c58215,0 105841,47626 105841,105837l0 2388883c0,58215 -47626,105845 -105841,105845l-4425036 0c-58215,0 -105841,-47630 -105841,-105845l0 -2388883c0,-58211 47626,-105837 105841,-105837z"/>
   </clipPath>
 </defs>
 <g id="Layer_x0020_1">
  <metadata id="CorelCorpID_0Corel-Layer"/>
  <path class="fil0" d="M107328 1487l4425036 0c58215,0 105841,47626 105841,105837l0 2388883c0,58215 -47626,105845 -105841,105845l-4425036 0c-58215,0 -105841,-47630 -105841,-105845l0 -2388883c0,-58211 47626,-105837 105841,-105837z"/>
  <g style="clip-path:url(#id0)">
   <g id="_935130176">
    <path id="1" class="fil1" d="M5254989 438932l0 2178103 2620391 9214c-6572,-95217 424741,-1351007 -128122,-2068418 -784547,-1018396 -1454971,-194805 -2339996,-123290 -50023,3950 -100494,5702 -152273,4391z"/>
    <path class="fil2" d="M1410471 2618783l3958199 0 0 -1748 -3958199 -13602 -1771362 -6174c0,-125 0,-238 0,-363 -86,-43 -86,-125 -86,-203 -2657,-8734 -36760,-10924 -80691,-11092 -1772,0 -3543,0 -5315,0 -3895,0 -7794,0 -11779,47 -4961,0 -9921,78 -14971,121 -10538,117 -21345,285 -32152,488 -8855,117 -17715,285 -26395,363 -7349,125 -14612,207 -21699,242 -3720,0 -7349,0 -10983,0l0 0c-1772,0 -3540,0 -5312,0 -45526,-160 -80780,-2517 -81932,-11978l0 0c-2658,-20458 -4960,-40929 -7173,-61395 0,-320 0,-648 0,-976 0,-78 -90,-203 -90,-285 -8590,-82709 -13461,-165300 -14526,-247490 -86,-7829 -176,-15709 -176,-23507 -90,115926 6998,232266 21965,349050 1241,9819 39239,11974 87244,11974 18691,0 38884,-328 58991,-656 20194,-320 40387,-648 58988,-648 47388,0 84675,2119 86092,11693l1771362 6139z"/>
    <path class="fil2" d="M-360891 2596896c-86,-43 -86,-125 -86,-203 0,78 0,160 86,203zm-204071 -10034l0 0c-1772,0 -3540,0 -5312,0 1772,0 3540,0 5312,0zm10983 0c7087,-35 14350,-117 21699,-242 -7349,125 -14612,207 -21699,242zm80246 -1093c5050,-43 10010,-121 14971,-121 -4961,0 -9921,78 -14971,121zm32065 -168c-1772,0 -3543,0 -5315,0l0 0c1772,0 3543,0 5315,0zm-210538 -10717c-2658,-20458 -4960,-40929 -7173,-61395 2213,20466 4515,40937 7173,61395zm-7173 -62371c0,-78 0,-203 -90,-285 0,82 90,207 90,285zm-14616 -247775c-86,-10873 -176,-21680 -176,-32514 0,3005 0,6006 0,9007 0,7798 90,15678 176,23507z"/>
    <polygon class="fil3" points="104826,948173 104826,2603469 5216405,2603469 5216405,1163047 4824604,1163047 4824604,769954 4432768,769954 4432768,1301028 4115565,1301028 4115565,1182374 3562968,1182374 3562968,1383011 3322467,1383011 3322467,932449 2678742,932449 2678742,159790 2169716,159790 2169716,571882 2053685,571882 2053685,226676 1544658,226676 1544658,758421 1083285,758421 1083285,432102 589936,432102 589936,758421 497907,758421 497907,948173 "/>
    <path class="fil4" d="M5857406 1093210l429116 0c27855,0 50671,-22781 50671,-50639l0 -413314c0,-27854 -22816,-50635 -50671,-50635l-429116 0c-27854,0 -50627,22781 -50627,50635l0 413314c0,27858 22773,50639 50627,50639z"/>
    <path class="fil1" d="M5876007 1070917l391957 0c25423,0 46253,-20790 46253,-46245l0 -377505c0,-25419 -20830,-46252 -46253,-46252l-391957 0c-25466,0 -46252,20833 -46252,46252l0 377505c0,25455 20786,46245 46252,46245z"/>
    <path class="fil4" d="M6082962 647893c0,-6084 -4905,-11002 -10998,-11002 -6049,0 -10967,4918 -10967,11002 0,6050 4918,10963 10967,10963 6093,0 10998,-4913 10998,-10963z"/>
    <path class="fil4" d="M5994286 663403c-2923,-5273 -9620,-7228 -14944,-4262 -5276,2970 -7189,9628 -4269,14944 2970,5324 9675,7228 14951,4258 5316,-2919 7228,-9617 4262,-14940z"/>
    <path class="fil4" d="M5918353 723749c-5113,-3287 -11896,-1827 -15182,3286 -3294,5116 -1835,11892 3251,15190 5113,3286 11896,1822 15225,-3298 3286,-5074 1779,-11892 -3294,-15178z"/>
    <path class="fil4" d="M5880718 817182c-6057,0 -10967,4906 -10967,10963 0,6089 4910,11002 10967,11002 6084,0 11002,-4913 11002,-11002 0,-6057 -4918,-10963 -11002,-10963z"/>
    <path class="fil4" d="M5899920 925548c-4258,4305 -4258,11252 0,15557 4305,4258 11248,4258 15553,0 4304,-4305 4304,-11252 0,-15557 -4305,-4305 -11248,-4305 -15553,0z"/>
    <path class="fil4" d="M5968910 994742c-4270,4269 -4270,11251 0,15509 4305,4305 11283,4305 15553,0 4297,-4258 4297,-11240 0,-15509 -4270,-4305 -11248,-4305 -15553,0z"/>
    <path class="fil4" d="M6082962 1030394c0,-6096 -4905,-11002 -10998,-11002 -6049,0 -10967,4906 -10967,11002 0,6049 4918,10963 10967,10963 6093,0 10998,-4914 10998,-10963z"/>
    <path class="fil4" d="M6150005 663403c2923,-5273 9629,-7228 14940,-4262 5281,2970 7193,9628 4262,14944 -2958,5324 -9663,7228 -14940,4258 -5315,-2919 -7220,-9617 -4262,-14940z"/>
    <path class="fil4" d="M6225939 723749c5109,-3287 11896,-1827 15190,3286 3286,5116 1822,11892 -3252,15190 -5120,3286 -11903,1822 -15189,-3298 -3287,-5074 -1827,-11892 3251,-15178z"/>
    <path class="fil4" d="M6263582 817182c6049,0 10955,4906 10955,10963 0,6089 -4906,11002 -10955,11002 -6093,0 -11010,-4913 -11010,-11002 0,-6057 4917,-10963 11010,-10963z"/>
    <path class="fil4" d="M6244368 925548c4305,4305 4305,11252 0,15557 -4305,4258 -11248,4258 -15541,0 -4305,-4305 -4305,-11252 0,-15557 4293,-4305 11236,-4305 15541,0z"/>
    <path class="fil4" d="M6175381 994742c4270,4269 4270,11251 0,15509 -4304,4305 -11247,4305 -15552,0 -4297,-4258 -4297,-11240 0,-15509 4305,-4305 11248,-4305 15552,0z"/>
    <path class="fil4" d="M6074930 828145c0,-6057 -4913,-10963 -10967,-10963 -6092,0 -11006,4906 -11006,10963 0,6089 4914,11002 11006,11002 6054,0 10967,-4913 10967,-11002z"/>
    <polygon class="fil4" points="6065470,828145 6062465,828145 6062465,690902 6065470,690902 "/>
    <polygon class="fil4" points="6062539,831471 6068112,824410 5995340,767273 5989778,774384 "/>
    <path class="fil5" d="M5216405 426638l0 2165423 304573 0 0 -2157637c-98667,8052 -200059,6607 -304573,-7786z"/>
    <path class="fil5" d="M-175776 651304l0 1940757 304605 0 0 -2300574c-112578,111531 -214258,232035 -304605,359817z"/>
    <path class="fil6" d="M-875229 2623166l9143534 0c9714,0 17668,-7962 17668,-17703l0 -4102c0,-9710 -7954,-17660 -17668,-17660l-9143534 0c-9745,0 -17715,7950 -17715,17660l0 4102c0,9741 7970,17703 17715,17703z"/>
    <polygon class="fil7" points="4966683,1827715 5015531,1827715 4955720,2584833 4836918,2584833 "/>
    <path class="fil8" d="M3995257 1606779l10467 2116c46698,9460 92622,-21033 102047,-67730l11081 -54819c9421,-46694 -21072,-92618 -67769,-102043l-10479 -2108c-46694,-9460 -92618,21036 -102036,67730l-11088 54819c-9413,46697 21072,92618 67777,102035z"/>
    <path class="fil7" d="M5015531 1827715c0,0 -266770,-125223 -632255,-41905l583407 41905 48848 0z"/>
    <path class="fil9" d="M4836918 2592061l129765 -764346c0,0 -408724,-137286 -725852,0l-188648 759518 784735 4828z"/>
    <path class="fil10" d="M2010816 2355377c7263,82912 54117,108538 74665,106341 20638,-2190 141099,-48192 143667,-31305 2658,16849 -69884,71992 -120636,74552 0,0 95923,105696 159606,75200 63686,-30497 69088,-78857 108768,-97005 39680,-18113 73603,-18070 57219,441 -16388,18476 -88219,36421 -110895,76624 -5401,9461 -10627,18230 -14612,25946l134097 -285c42514,-21114 78389,-50264 81043,-81698 179,-2392 355,-4667 534,-6857 4161,-48360 4161,-48360 4161,-48360 0,0 68908,-80316 33037,-146953 -5932,-11088 -14792,-21805 -27277,-31672 0,0 -64217,-38856 -116562,-35687 0,0 40566,68007 51990,108417 4075,14249 4430,25048 -1772,28252 -6818,3579 -15678,-6697 -24888,-23136 -22941,-41221 -47740,-121370 -47740,-121370 0,0 -38618,-3739 -82548,-4305 -19667,-246 -40481,160 -59257,1780 -20904,1834 -39235,5199 -51283,10967 0,0 2658,2150 6998,5846 6642,5480 17094,14374 28787,24694 34630,30652 79625,73861 62796,77713 -13640,3169 -56423,-22250 -94417,-47424 -35430,-23471 -66695,-46775 -66695,-46775 0,0 -135959,23148 -128786,106059z"/>
    <path class="fil10" d="M2077597 2357610c0,0 369263,-14206 450836,91361 0,0 18070,54004 73517,103214l8591 23550c0,0 -63948,-67437 -86803,-71547 0,0 35785,-130822 -446141,-146578z"/>
    <path class="fil10" d="M2586448 2551573c3099,3454 7884,8168 14702,14421l90 160c2392,2197 4695,4550 6822,7021 3454,3817 6818,7965 9917,12348l17274 0c-17804,-21887 -33303,-33338 -33303,-33338l-89 -35c-1327,-815 -33128,-20064 -15413,-577z"/>
    <path class="fil10" d="M2931482 2311603c0,0 -148936,-83442 -79493,-196648 0,0 55658,-69521 115223,-87384 0,0 -31753,168836 0,172813 31801,3942 21852,-190680 21852,-190680 0,0 156933,-75481 218488,-69521 0,0 -97328,164863 -65532,160886 31754,-3981 141017,-170831 141017,-170831 0,0 160883,-29798 186700,65544 25794,95339 -15916,143008 -39751,148979 -23834,5960 -176747,3977 -172770,23835 3977,19850 107234,51646 164852,33736 0,0 -63585,156940 -146985,148979 -83399,-7954 -109228,-59565 -160874,-63542 -51658,-3985 -89379,9901 -63554,23834 25829,13890 113205,4543 154915,39993 41702,35453 75481,57297 -1994,73213 -77472,15880 -216506,5971 -244283,-53641 -27811,-59565 -27811,-59565 -27811,-59565z"/>
    <path class="fil10" d="M3396250 2025577c0,0 -417099,135057 -464768,286026 0,0 1994,67527 -39750,144959l0 29806c0,0 43727,-101267 67561,-115200 0,0 -93308,-131069 436957,-345591z"/>
    <path class="fil10" d="M2853140 2585238l23808 -78c737,-34473 4757,-73170 16485,-102656l0 0c1507,-3692 3091,-7228 4793,-10639l43 -78c4949,-9698 8282,-16848 10432,-22012l0 -35c12189,-29884 -16969,6822 -16969,6822 0,0 -34962,53118 -38592,128676z"/>
    <path class="fil4" d="M2694506 2196528c0,0 196332,-109962 104693,-259179 0,0 -73338,-91646 -151812,-115196 0,0 41807,222555 0,227789 -41897,5245 -28787,-251342 -28787,-251342 0,0 -206905,-99483 -288037,-91647 0,0 128251,217322 86448,212080 -41897,-5234 -185915,-225150 -185915,-225150 0,0 -212041,-39309 -246144,86366 -34009,125667 20993,188526 52349,196367 31441,7872 233034,5233 227808,31425 -5226,26188 -141365,68058 -217271,44504 0,0 83790,206838 193709,196367 110006,-10479 144019,-78529 212041,-83770 68112,-5238 117893,13070 83790,31386 -34009,18355 -149244,6007 -204247,52747 -54916,46775 -99467,75563 2658,96517 102125,20947 285379,7841 322050,-70688 36667,-78576 36667,-78576 36667,-78576z"/>
    <path class="fil10" d="M2081851 1819511c0,0 549769,178051 612655,377017 0,0 -2658,89043 52349,191126l0 39270c0,0 -57661,-133512 -89016,-151820 0,0 123025,-172825 -575988,-455593z"/>
    <path class="fil10" d="M2724445 2378646l89 35c2744,6861 7174,16287 13727,29076l89 82c2213,4426 4340,9094 6202,13968l86 43c18780,47139 22500,112265 21789,163548l31621 -78c3719,-114259 -51193,-197666 -51193,-197666l0 0c-886,-1058 -38178,-47911 -22410,-9008z"/>
    <path class="fil11" d="M3672075 2587233l746885 0c11045,-26758 20708,-55350 29205,-85156 21274,-74470 35074,-156531 43852,-236929 113,-1011 238,-2065 363,-3083 15065,-139441 15143,-273558 13117,-354112 -1179,-46615 -3048,-75321 -3130,-76749l0 -43c-1584,-648 -3212,-1296 -4789,-1940 -39637,-16606 -77600,-30949 -114021,-43329l-281 -82c-30621,-10432 -60096,-19452 -88442,-27210 -49820,-13684 -96154,-23507 -139030,-30325 -50558,-7997 -96314,-11818 -137290,-12677 -1858,-78 -3649,-78 -5515,-113 -10807,-203 -21278,-168 -31426,78 -102250,2197 -170264,22535 -204699,36093 -4750,1870 -8852,3657 -12306,5246 -441,203 -886,363 -1334,566 -3899,1744 -6901,3208 -9008,4262l-863 448c-1007,523 -1982,1101 -2923,1667l-53839 565988 -24526 257400z"/>
    <path class="fil11" d="M2927825 2464887c74833,34712 519912,63870 562667,51568 21930,-6334 113689,-87139 206027,-186579l82 -43c87337,-94038 175416,-204773 205140,-284434 61107,-163681 8567,-309046 8567,-309046 0,0 -113576,-452 -159868,27492 -46288,28014 -310993,515517 -346396,528388 -35367,12915 -454695,36910 -502692,59690 0,0 -48301,78209 26473,112964z"/>
    <path class="fil12" d="M4013077 1735300l125 27526c0,0 -7634,86206 98464,98953 106103,12789 186579,-33338 183816,-99846 -9461,-51526 -19893,-86893 -20541,-129528 -246,-15837 851,-32604 3852,-51614l-205663 -4383 -60619 9788 566 149104z"/>
    <path class="fil13" d="M4012511 1586196l566 149104c21844,10186 46491,16403 74099,16446 94535,160 188616,-151945 191617,-170955l-266282 5405z"/>
    <path class="fil12" d="M4000412 1658640c0,0 263317,53594 294176,-110895 30868,-164496 85640,-268358 -81171,-309533 -166799,-41214 -211350,15428 -235017,67811 -23674,52416 -45686,334422 22012,352617z"/>
    <path class="fil14" d="M3927355 1183721c0,0 73498,-5562 160196,-43080 70360,-30497 159001,3329 187796,18554 -776,-4675 -2638,-10998 -7033,-17340 0,0 12962,9175 14831,22008 1335,976 1905,1666 1585,1869 0,0 14647,-2638 24072,1577 0,0 -6615,-929 -8972,3294 -246,445 -609,851 -1054,1179 109627,53152 119493,226532 84125,266614 -42548,48188 -93628,156773 -93628,156773 0,0 -18555,-25704 -10761,-68175 7794,-42436 -28865,-42471 -75199,-61887 -46288,-19362 -7599,-73327 -48075,-106216 -40488,-32885 -189139,-13808 -187192,-38899 -55143,-20186 -40691,-130628 -40691,-136271z"/>
    <path class="fil15" d="M4418960 2587233c11045,-26758 20708,-55350 29205,-85156 21274,-74470 35074,-156531 43852,-236929 113,-1011 238,-2065 363,-3083 -566,285 -1507,1826 -2120,1053 -29103,-35320 -108447,-73939 -204601,66758 -19167,28058 -103301,224550 -116703,257357l250004 0z"/>
    <path class="fil12" d="M4340919 2587233c2154,-12712 -238,-28670 -10152,-48610 0,0 -12344,-7997 -28658,-17297 -24412,-13766 -57742,-30407 -72854,-27734 -2717,488 -6366,1261 -10717,2315 -35852,8605 -119376,34356 -132006,49421 -10393,12384 -24564,28175 -34349,41905l288736 0z"/>
    <path class="fil11" d="M4285659 2587233l703727 0c1869,-9063 1947,-17387 -531,-23675 -20994,-53031 -61965,-140291 -109151,-233931 -34711,-68901 -72760,-141263 -108651,-205984 -49866,-89820 -95541,-164984 -122388,-195797 -21115,-24245 -47830,-44586 -75684,-61353 -23632,-14253 -48079,-25954 -70614,-35289l0 -43c-1584,-648 -3212,-1296 -4789,-1940 -49015,-19857 -87872,-28549 -87872,-28549 0,0 -535,22207 -566,56396 -125,99202 3657,299054 35321,347824 8812,13605 25259,34146 45799,58226 613,691 1144,1382 1757,2030 11123,13039 23460,27085 36386,41503 73443,82267 166432,178909 177797,190637 773,816 1144,1222 1144,1222l-1347 0 -197296 2755 -60536 812 -125519 1748c-8645,3735 -15385,9867 -20537,17501 -12146,17750 -15885,43614 -16450,65907z"/>
    <path class="fil15" d="M2927825 2464887c74833,34712 519912,63870 562667,51568 21930,-6334 113689,-87139 206027,-186579 -4590,613 -46776,-69759 -239279,98637 0,0 -50432,22441 -187597,9858 -137208,-12544 -313394,-17176 -341818,26516z"/>
    <path class="fil16" d="M3365106 2585886l508781 0c0,-22410 -18149,-40558 -40566,-40558l-468215 0 0 40558z"/>
    <polygon class="fil16" points="3366562,2031751 2579895,2031751 2768554,2585886 3560329,2585886 "/>
    <polygon class="fil17" points="2568292,2031716 2757041,2585886 3548761,2585886 3354958,2031716 "/>
    <path class="fil18" d="M2992429 2303684c4870,21197 25988,38334 47181,38334 21153,0 34395,-17137 29478,-38334 -4871,-21149 -26020,-38333 -47181,-38333 -21150,0 -34349,17184 -29478,38333z"/>
    <polygon class="fil16" points="2568292,2031716 2757041,2585886 3125332,2585886 2684144,2031716 "/>
    <path class="fil8" d="M4218050 1606779l10514 2116c46697,9460 92622,-21033 102047,-67730l11080 -54819c9422,-46694 -21071,-92618 -67768,-102043l-10479 -2108c-46694,-9460 -92618,21036 -102036,67730l-11088 54819c-9414,46697 21036,92618 67730,102035z"/>
    <path class="fil8" d="M4299662 1409406c7033,-12677 17344,-114712 -10717,-195969 -13559,-39263 -35446,-61638 -62941,-76738 -9945,-5483 -21107,-8364 -32441,-8364l-27643 445c90990,38529 112105,244645 105001,266614 239,-647 523,-1178 726,-1510l28015 15522z"/>
    <path class="fil8" d="M4034113 1623956c152921,0 228605,-120843 229377,-122057l-13687 -8368 6822 4188 -6822 -4223c-691,1179 -71991,114427 -215733,114427 -932,0 -1904,0 -2880,0l-168 16033c1019,0 2073,0 3091,0z"/>
    <path class="fil11" d="M4242739 1553139l5199 1065c23264,4664 46170,-10525 50873,-33782l5526 -27289c4668,-23269 -10510,-46174 -33779,-50877l-5198 -1019c-23269,-4711 -46174,10471 -50885,33736l-5519 27293c-4668,23264 10511,46162 33783,50873z"/>
    <path class="fil8" d="M4015107 1629275l14417 0c7345,0 13359,-6002 13359,-13355 0,-7353 -6014,-13320 -13359,-13320l-14417 0c-7353,0 -13360,5967 -13360,13320 0,7353 6007,13355 13360,13355z"/>
    <path class="fil14" d="M6961134 1389954c0,0 128306,65614 34790,206514 0,0 110247,12747 137981,-18917 0,0 -4184,13844 -9055,20619 0,0 106793,-14004 145084,-54491 38244,-40477 -81089,-578942 -365566,-468742 0,0 -252892,23066 -181138,308152 71788,285090 -22500,300927 -22500,300927 0,0 28389,8520 41054,6413 0,0 17297,-10198 19248,-21036 0,0 -975,16684 -4835,22620 0,0 103378,-7477 147765,-54409 44383,-46947 81655,-190478 57172,-247650z"/>
    <path class="fil4" d="M6777967 1530811l10272 1417c45714,6342 88352,-25907 94687,-71629l7473 -53711c6335,-45729 -25907,-88360 -71671,-94737l-10229 -1382c-45757,-6377 -88396,25864 -94730,71629l-7474 53683c-6334,45757 25907,88396 71672,94730z"/>
    <path class="fil12" d="M6748649 1961266c38290,29556 62523,136267 124250,153892 231403,66060 355653,-208754 396262,-342906 -30980,-19905 -60829,-25466 -78084,-28425 -16809,-2853 -34551,-5073 -49253,-6580 -25256,-21481 -60260,-105899 -62375,-234337l-11159 2400 -187144 41089c0,0 5436,59124 6775,114755 972,43567 2400,54003 -976,59159 -14577,2400 -31706,39625 -31706,39625l-82 168c-2728,3942 -60752,89246 -106508,201160z"/>
    <path class="fil13" d="M6881099 1546446c0,0 5519,59030 6787,114743 105115,-5109 158720,-102196 180404,-155844l-187191 41101z"/>
    <path class="fil9" d="M5929273 2516986c0,0 110087,4012 229588,4418 14128,90 28424,90 42673,0 97325,-406 192991,-3817 233682,-14285 39751,-10241 192710,-113896 315087,-239493l47 -78c9504,22613 16650,39910 16857,41292 3567,28182 9581,56439 16844,83567 27777,103464 74029,190318 75606,193319l65532 -125 511669 -726c0,0 -96642,-148853 -70692,-530265 691,-9664 -89086,-317363 -89086,-317363 0,0 -69724,-12223 -150325,-18726 -7591,6944 -23222,209403 -124044,221096 -16403,1912 -121565,162584 -121565,162584l-31878 -164126 37677 -217762c-48360,14171 -74868,19245 -115075,35328 -27366,10959 -50022,31145 -64150,57009 -70450,128676 -299020,543824 -322370,553523 -21840,9062 -104186,25501 -191325,41416l-43 0c-116581,21283 -241725,41507 -241725,41507l-22984 67890z"/>
    <polygon class="fil9" points="6823111,2585769 6859782,2585886 6859657,2585726 "/>
    <path class="fil12" d="M6849915 1602678c0,0 248868,-4871 243424,-159774 -5441,-154915 23026,-259874 -136065,-263328 -159087,-3454 -187882,56766 -198642,108908 -10764,52134 26438,311473 91283,314194z"/>
    <path class="fil4" d="M6158861 2521404c14128,90 28424,90 42673,0 97325,-406 192991,-3817 233682,-14285 39751,-10241 192710,-113896 315087,-239493l47 -78c0,0 -25821,-98839 -36952,-115403 -11127,-16559 -55014,144268 -157623,209688 -102571,65411 -263168,111258 -341119,92700 -52509,-12470 -57868,34719 -55795,66871z"/>
    <path class="fil19" d="M6898806 1516480c0,0 -1584,18554 -42400,21477 0,0 -34267,2435 -35688,-17500 0,0 31188,-18714 78088,-3977z"/>
    <path class="fil8" d="M6885318 1579128c141388,-44668 176072,-178500 176435,-179882l-15104 -3731 7548 1862 -7548 -1862c-328,1257 -33135,126811 -165991,168794 -894,285 -1791,566 -2685,816l4508 14862c975,-293 1904,-578 2837,-859z"/>
    <path class="fil4" d="M6869328 1589603l13313 -4223c6787,-2150 10604,-9460 8449,-16236 -2150,-6783 -9468,-10604 -16243,-8449l-13321 4227c-6822,2107 -10592,9456 -8442,16243 2155,6776 9461,10557 16244,8438z"/>
    <path class="fil14" d="M6835787 1159027c0,0 63702,188694 159290,220733 95542,31999 127252,-5890 127252,-5890 0,0 -70442,-64685 -78486,-169359 0,0 -154415,-122631 -208056,-45484z"/>
    <path class="fil14" d="M6954757 1214580c0,0 -129734,-7271 -168508,29638 -27937,26641 -27289,40566 -29486,76055 0,0 -56724,-87502 1662,-148737 61887,-64971 196332,43044 196332,43044z"/>
    <path class="fil14" d="M6841306 1178967c0,0 32487,180572 151297,246186 0,0 -115083,-117748 -117108,-235551 -2030,-117791 -34189,-10635 -34189,-10635z"/>
    <path class="fil14" d="M7269934 1543679c-38244,40487 -145084,54491 -145084,54491 4918,-6740 9055,-20666 9055,-20666 -54897,44500 -189705,12181 -189705,12181 107527,-23745 72725,-178910 36136,-185525 -21321,-117065 -63585,-262750 -83399,-328204 4792,-773 7466,-1019 7466,-1019 284442,-110200 403775,428300 365531,468742z"/>
    <path class="fil4" d="M7036334 1514895l10272 1417c45757,6334 88353,-25899 94730,-71621l7431 -53726c6330,-45722 -25864,-88353 -71629,-94687l-10276 -1467c-45757,-6327 -88348,25907 -94726,71671l-7431 53676c-6334,45764 25861,88403 71629,94737z"/>
    <path class="fil4" d="M7103533 1319016c6127,-11451 -15307,-100416 -46775,-169402 -15225,-33342 -53641,-77963 -81090,-89496 -9909,-4145 -23065,-2435 -33782,0 -7802,1744 -29681,11939 -29681,11939 90143,28096 168430,216950 162779,236480 160,-609 410,-1054 577,-1382l27972 11861z"/>
    <path class="fil10" d="M7056996 1461504l5120 680c22781,3173 44020,-12911 47181,-35684l3739 -26758c3162,-22781 -12914,-44020 -35695,-47181l-5120 -703c-22816,-3161 -44048,12880 -47217,35696l-3692 26757c-3173,22781 12903,44020 35684,47193z"/>
    <path class="fil12" d="M6453204 2427244c0,0 -106711,-6131 -117108,-523 -16802,9051 -74146,46003 -83118,56724 -9016,10717 -32523,53761 -32523,53761 0,0 10194,2799 14784,-1346 4621,-4102 39423,-41089 39423,-41089l-35774 54331c0,0 12392,-566 17263,-5967 4905,-5406 38325,-39349 38325,-39349l11416 -2275c0,0 -11619,9300 -17910,17742 -6295,8407 -10432,17465 -10432,17465 0,0 10186,-1752 13355,-3251 3173,-1502 33135,-27729 33135,-27729l-15880 21637c0,0 10725,-523 14218,-2876 3532,-2404 26878,-23882 31015,-23839 4145,39 33951,-1221 46741,-8004 12789,-6776 52949,-22329 52949,-22329l121 -43083z"/>
    <path class="fil4" d="M7112061 1688840c0,0 71382,20791 87626,37202 0,0 -74587,190724 -182157,279720l-28744 -20381 0 46335 -107687 70485c0,0 236480,-355653 230962,-413361z"/>
    <path class="fil4" d="M6784051 2392407c27777,103464 74029,190318 75606,193319l-36546 43 36671 117 339905 0 -39352 -285c936,-3411 -57493,-161768 39352,-226692 97048,-65009 132212,-224877 132212,-224877l-308717 -75445c0,0 -127221,185657 -163400,221025 -27812,27156 -92575,29228 -92575,29228l16844 83567z"/>
    <path class="fil4" d="M6886945 1720313c0,0 -32850,259507 -5846,381888 0,0 -44055,-80964 -50229,-95826l7388 -44500 -28425 9901c0,0 25096,-206877 47794,-243138 22703,-36262 31028,-39798 31028,-39798l-1710 31473z"/>
    <path class="fil12" d="M5929273 2516986c0,0 137696,5073 272261,4418 33377,-51767 -7509,-113815 -7509,-113815l-43 0c-116581,21283 -241725,41507 -241725,41507l-22984 67890z"/>
    <path class="fil20" d="M5916245 2585886l508820 0c0,-22410 -18191,-40558 -40566,-40558l-468254 0 0 40558z"/>
    <polygon class="fil4" points="5131066,2031716 5319717,2585886 6111512,2585886 5917705,2031716 "/>
    <polygon class="fil4" points="5131066,2031716 5318016,2580774 5319717,2585886 6099944,2585886 5906137,2031716 "/>
    <path class="fil21" d="M5543576 2303684c4906,21197 26024,38334 47173,38334 21197,0 34400,-17137 29486,-38334 -4871,-21149 -25985,-38333 -47181,-38333 -21161,0 -34349,17184 -29478,38333z"/>
    <polygon class="fil20" points="5131066,2031716 5318016,2580774 5676471,2580774 5239401,2031716 "/>
    <path class="fil12" d="M6453083 2470370c0,0 261900,22859 406699,16404l0 -142239c-94855,26192 -406578,82709 -406578,82709l-121 43126z"/>
    <path class="fil9" d="M7199687 1726042c0,0 149795,3411 196160,53473 46370,50069 -46003,333083 -46003,333083 0,0 -279200,341935 -418879,366054 0,0 -61032,8360 -89538,8813 0,0 27936,-81335 -23991,-132373 0,0 59768,-16774 62238,-24162 2479,-7431 320013,-604888 320013,-604888z"/>
    <path class="fil11" d="M1053702 1081552c0,0 151726,-56439 246498,54374 54383,63542 401851,726060 397691,784044 -4164,58015 -37291,87013 -37291,87013 0,0 14526,-50760 3633,-77143 0,0 6998,89324 -48184,127377 -28698,19811 -744098,-19011 -806274,-105662 -135163,-188366 160047,-285858 152784,-489371 -4161,-117995 -120192,-368693 91143,-380632z"/>
    <path class="fil4" d="M909153 1503522l10182 2073c45261,9140 89726,-20428 98847,-65704l10807 -53106c9125,-45269 -20459,-89824 -65720,-98956l-10096 -2073c-45351,-9133 -89902,20424 -99027,65704l-10717 53153c-9121,45234 20373,89777 65724,98909z"/>
    <path class="fil4" d="M260003 2584875l474662 0c80511,-127782 151281,-300357 167755,-434755 7884,-63757 3544,-118892 -17805,-156617 -66340,-117100 38884,-254589 38884,-254589 0,0 -144814,41007 -178472,160340 -34279,121663 -126304,526164 -126304,526164l-352433 72479c-16564,41460 -6287,86978 -6287,86978z"/>
    <path class="fil10" d="M260003 2584875l474662 0c80511,-127782 151281,-300357 167755,-434755l-70415 -21559c0,0 -89015,406608 -140829,412825 -51729,6253 -431173,43489 -431173,43489z"/>
    <path class="fil12" d="M853440 1931382c36401,31866 83345,60049 143842,81405 226923,80156 338524,-106668 387239,-238065 -29673,-21762 -59167,-29150 -76175,-33170 -16560,-3899 -34189,-7193 -48712,-9585 -23916,-22984 -53675,-109432 -47918,-237745l-11252 1709 -189276 29521c0,0 1772,59327 -355,114950 -1682,43525 -5846,84871 -15147,94047 -14702,1452 -23472,2513 -23472,2513l-175 160c-2923,3774 -66075,85394 -118599,194260z"/>
    <path class="fil13" d="M1011188 1525495c0,0 1772,59284 -355,114950 105224,1339 164656,-92255 189631,-144479l-189276 29529z"/>
    <path class="fil4" d="M763183 2128561c534,4055 51107,168543 51638,172688 17536,137731 49336,284637 49336,284637l69529 -117 458719 -894c0,0 -55358,-166966 90608,-422984 4781,-8407 9831,-16849 14967,-25458 20814,-34154 -110360,-399186 -110360,-399186 0,0 -57395,-10151 -137996,-16653 -7619,6947 -63507,211681 -164832,217934 -132240,8114 -82108,-220007 -82108,-220007 -53851,10850 -73248,14784 -142426,47876 0,0 -99909,339711 -97075,362164z"/>
    <path class="fil12" d="M976554 1579694c0,0 248712,10444 252787,-144506 4074,-154951 38973,-257970 -119661,-271200 -158545,-13196 -190962,45109 -204957,96517 -13996,51365 7263,312492 71831,319189z"/>
    <path class="fil19" d="M1030671 1496657c0,0 -2833,18398 -43665,18839 0,0 -34368,328 -34544,-19643 0,0 32242,-16778 78209,804z"/>
    <path class="fil8" d="M1013311 1558384c143933,-35898 186712,-167376 187153,-168680l-14788 -4668 7349 2315 -7349 -2315c-445,1226 -40921,124536 -176084,158237 -886,246 -1858,452 -2744,690l3630 15112c886,-250 1861,-495 2833,-691z"/>
    <path class="fil22" d="M996662 1567841l13640 -3407c6818,-1710 11158,-8778 9386,-15678 -1682,-6900 -8765,-11162 -15677,-9425l-13551 3376c-6908,1701 -11158,8769 -9476,15713 1772,6908 8766,11123 15678,9421z"/>
    <path class="fil11" d="M1117474 1067592c0,0 -160141,-24974 -226392,108292 -50397,101465 -8324,164859 11428,184264 0,0 26125,-145771 75020,-158197 0,0 31621,-9621 53141,15392 21438,25006 52614,136553 88309,153647 0,0 110981,27371 116383,-11330 5491,-38739 2482,-159251 -25509,-178668 -27987,-19404 -92380,-113400 -92380,-113400z"/>
    <path class="fil4" d="M1168047 1503522l10100 2073c45257,9140 89812,-20428 98933,-65704l10717 -53106c9211,-45269 -20369,-89824 -65630,-98956l-10186 -2073c-45261,-9133 -89812,20424 -98937,65704l-10717 53153c-9121,45234 20373,89777 65720,98909z"/>
    <path class="fil4" d="M1247145 1312151c6819,-11045 16740,-99963 -10451,-170741 -13110,-34232 -34369,-53765 -61029,-66918 -9566,-4754 -20459,-7314 -31441,-7314l-26750 414c88219,33580 108678,213215 101770,232382 176,-613 531,-1019 706,-1339l27195 13516z"/>
    <path class="fil10" d="M1191963 1451501l4961 1019c22585,4555 44816,-10147 49335,-32725l5312 -26477c4606,-22531 -10096,-44746 -32682,-49289l-5050 -1018c-22586,-4543 -44727,10151 -49332,32729l-5316 26473c-4605,22531 10187,44746 32772,49288z"/>
    <path class="fil10" d="M1392405 2584875c0,0 -55358,-166966 90608,-422984l-54386 -67929c0,0 -96275,272663 -216556,352168 -120106,79341 -261381,62769 -278385,139639l458719 -894z"/>
    <path class="fil4" d="M1387620 1737247c0,0 99023,8610 165277,125710 66340,117101 192113,554702 192113,721918l-529751 0c0,0 -10366,-45518 6198,-86978l327896 -63257c0,0 -197339,-293005 -199466,-419375 -2037,-126358 37733,-278018 37733,-278018z"/>
    <path class="fil12" d="M1212071 2531079c0,0 -103187,-10116 -120286,-5448 -17094,4667 -66071,24853 -76967,31831 -10893,6990 -31797,27413 -31797,27413 0,0 13196,2471 20904,726 7794,-1697 31176,-3286 37377,-3817 6198,-487 28432,4102 28432,4102l160052 0 -17715 -54807z"/>
    <path class="fil11" d="M277277 2585886l508847 0c0,-22410 -18156,-40558 -40566,-40558l-468281 0 0 40558z"/>
    <polygon class="fil20" points="-507922,2031716 -319173,2585886 472578,2585886 278779,2031716 "/>
    <polygon class="fil20" points="-507922,2031716 -320945,2580774 -319173,2585886 460975,2585886 267176,2031716 "/>
    <path class="fil23" d="M-95350 2303684c4871,21197 26040,38334 47119,38334 21259,0 34458,-17137 29583,-38334 -4956,-21149 -26039,-38333 -47208,-38333 -21169,0 -34365,17184 -29494,38333z"/>
    <polygon class="fil11" points="-507922,2031716 -320945,2580774 37510,2580774 -399509,2031716 "/>
   </g>
  </g>
  <path class="fil24 str0" d="M107328 1487l4425036 0c58215,0 105841,47626 105841,105837l0 2388883c0,58215 -47626,105845 -105841,105845l-4425036 0c-58215,0 -105841,-47630 -105841,-105845l0 -2388883c0,-58211 47626,-105837 105841,-105837z"/>
 </g>
</svg>
