<?xml version="1.0" encoding="utf-8"?>
<!-- Generator: Adobe Illustrator 16.0.0, SVG Export Plug-In . SVG Version: 6.00 Build 0)  -->
<!DOCTYPE svg PUBLIC "-//W3C//DTD SVG 1.1//EN" "http://www.w3.org/Graphics/SVG/1.1/DTD/svg11.dtd">
<svg version="1.1" id="Layer_1" xmlns="http://www.w3.org/2000/svg" xmlns:xlink="http://www.w3.org/1999/xlink" x="0px" y="0px"
	 width="360px" height="360px" viewBox="0 0 360 360" enable-background="new 0 0 360 360" xml:space="preserve">
<g>
	<g>
		<g>
			<g>
				<path fill="#231F20" d="M-29.001953,190.941406v-1.538086c0-1.43457-0.866211-2.600586-1.932617-2.600586h-18.117188
					c-1.066406,0-1.932617,1.166016-1.932617,2.600586v1.538086H-29.001953z"/>
				<path fill="#F1F2F2" d="M-24.926758,186.802734h-2.144043c-1.067383,0-1.931152,1.166016-1.931152,2.600586v1.538086h4.075195
					V186.802734z"/>
			</g>
		</g>
	</g>
	<g>
		<g>
			<g>
				<path fill="#231F20" d="M-27.863281,186.802734h-1.209961v4.138672h3.141602v-1.538086
					C-25.931641,187.96875-26.796875,186.802734-27.863281,186.802734z"/>
				<path fill="#F1F2F2" d="M-3.951172,190.941406v-1.538086c0-1.43457-0.865234-2.600586-1.932617-2.600586H-24
					c-1.066406,0-1.931641,1.166016-1.931641,2.600586v1.538086H-3.951172z"/>
			</g>
			<g>
				<path fill="#231F20" d="M18.029297,190.941406v-1.538086c0-1.43457-0.865234-2.600586-1.931641-2.600586H-2.019531
					c-1.066406,0-1.931641,1.166016-1.931641,2.600586v1.538086H18.029297z"/>
				<path fill="#F1F2F2" d="M40.009766,190.941406v-1.538086c0-1.43457-0.865234-2.600586-1.931641-2.600586H19.960938
					c-1.067383,0-1.931641,1.166016-1.931641,2.600586v1.538086H40.009766z"/>
			</g>
			<g>
				<path fill="#231F20" d="M61.989258,190.941406v-1.538086c0-1.43457-0.863281-2.600586-1.930664-2.600586H41.941406
					c-1.067383,0-1.931641,1.166016-1.931641,2.600586v1.538086H61.989258z"/>
				<path fill="#F1F2F2" d="M83.970703,190.941406v-1.538086c0-1.43457-0.865234-2.600586-1.931641-2.600586H63.921875
					c-1.067383,0-1.932617,1.166016-1.932617,2.600586v1.538086H83.970703z"/>
			</g>
			<g>
				<path fill="#231F20" d="M105.951172,190.941406v-1.538086c0-1.43457-0.865234-2.600586-1.930664-2.600586H85.901367
					c-1.06543,0-1.930664,1.166016-1.930664,2.600586v1.538086H105.951172z"/>
				<path fill="#F1F2F2" d="M127.931641,190.941406v-1.538086c0-1.43457-0.865234-2.600586-1.931641-2.600586h-18.117188
					c-1.066406,0-1.931641,1.166016-1.931641,2.600586v1.538086H127.931641z"/>
			</g>
		</g>
		<g>
			<g>
				<path fill="#231F20" d="M145.404297,190.941406v-1.538086c0-1.43457-0.865234-2.600586-1.933594-2.600586h-18.117188
					c-1.066406,0-1.931641,1.166016-1.931641,2.600586v1.538086H145.404297z"/>
				<path fill="#F1F2F2" d="M167.383789,190.941406v-1.538086c0-1.43457-0.865234-2.600586-1.932617-2.600586h-18.116211
					c-1.068359,0-1.930664,1.166016-1.930664,2.600586v1.538086H167.383789z"/>
			</g>
			<g>
				<path fill="#231F20" d="M189.362305,190.941406v-1.538086c0-1.43457-0.863281-2.600586-1.929688-2.600586h-18.118164
					c-1.066406,0-1.930664,1.166016-1.930664,2.600586v1.538086H189.362305z"/>
				<path fill="#F1F2F2" d="M211.34375,190.941406v-1.538086c0-1.43457-0.865234-2.600586-1.932617-2.600586h-18.117188
					c-1.06543,0-1.931641,1.166016-1.931641,2.600586v1.538086H211.34375z"/>
			</g>
			<g>
				<path fill="#231F20" d="M233.323242,190.941406v-1.538086c0-1.43457-0.864258-2.600586-1.931641-2.600586h-18.116211
					c-1.067383,0-1.931641,1.166016-1.931641,2.600586v1.538086H233.323242z"/>
				<path fill="#F1F2F2" d="M255.304688,190.941406v-1.538086c0-1.43457-0.865234-2.600586-1.931641-2.600586h-18.117188
					c-1.067383,0-1.932617,1.166016-1.932617,2.600586v1.538086H255.304688z"/>
			</g>
			<g>
				<path fill="#231F20" d="M277.285156,190.941406v-1.538086c0-1.43457-0.865234-2.600586-1.931641-2.600586h-18.117188
					c-1.066406,0-1.931641,1.166016-1.931641,2.600586v1.538086H277.285156z"/>
				<path fill="#F1F2F2" d="M299.265625,190.941406v-1.538086c0-1.43457-0.864258-2.600586-1.930664-2.600586h-18.118164
					c-1.066406,0-1.931641,1.166016-1.931641,2.600586v1.538086H299.265625z"/>
			</g>
			<g>
				<path fill="#231F20" d="M321.245117,190.941406v-1.538086c0-1.43457-0.862305-2.600586-1.930664-2.600586h-18.117188
					c-1.066406,0-1.931641,1.166016-1.931641,2.600586v1.538086H321.245117z"/>
				<path fill="#F1F2F2" d="M343.226563,190.941406v-1.538086c0-1.43457-0.864258-2.600586-1.931641-2.600586h-18.115234
					c-1.069336,0-1.93457,1.166016-1.93457,2.600586v1.538086H343.226563z"/>
			</g>
			<g>
				<path fill="#231F20" d="M365.208008,190.941406v-1.538086c0-1.43457-0.867188-2.600586-1.932617-2.600586h-18.117188
					c-1.067383,0-1.931641,1.166016-1.931641,2.600586v1.538086H365.208008z"/>
				<path fill="#F1F2F2" d="M387.186523,190.941406v-1.538086c0-1.43457-0.864258-2.600586-1.930664-2.600586h-18.116211
					c-1.067383,0-1.931641,1.166016-1.931641,2.600586v1.538086H387.186523z"/>
			</g>
			<g>
				<path fill="#231F20" d="M409.168945,190.941406v-1.538086c0-1.43457-0.865234-2.600586-1.933594-2.600586h-18.116211
					c-1.067383,0-1.932617,1.166016-1.932617,2.600586v1.538086H409.168945z"/>
				<path fill="#F1F2F2" d="M431.147461,190.941406v-1.538086c0-1.43457-0.864258-2.600586-1.930664-2.600586h-18.115234
					c-1.069336,0-1.932617,1.166016-1.932617,2.600586v1.538086H431.147461z"/>
			</g>
			<g>
				<path fill="#231F20" d="M453.128906,190.941406v-1.538086c0-1.43457-0.863281-2.600586-1.932617-2.600586h-18.116211
					c-1.067383,0-1.932617,1.166016-1.932617,2.600586v1.538086H453.128906z"/>
				<path fill="#F1F2F2" d="M475.109375,190.941406v-1.538086c0-1.43457-0.865234-2.600586-1.931641-2.600586h-18.117188
					c-1.066406,0-1.931641,1.166016-1.931641,2.600586v1.538086H475.109375z"/>
			</g>
			<g>
				<path fill="#231F20" d="M497.087891,190.941406v-1.538086c0-1.43457-0.864258-2.600586-1.931641-2.600586h-18.114258
					c-1.068359,0-1.932617,1.166016-1.932617,2.600586v1.538086H497.087891z"/>
				<path fill="#F1F2F2" d="M519.070313,190.941406v-1.538086c0-1.43457-0.864258-2.600586-1.931641-2.600586h-18.119141
					c-1.064453,0-1.931641,1.166016-1.931641,2.600586v1.538086H519.070313z"/>
			</g>
		</g>
		<g>
			<g>
				<path fill="#231F20" d="M536.541016,190.941406v-1.538086c0-1.43457-0.865234-2.600586-1.930664-2.600586h-18.118164
					c-1.066406,0-1.930664,1.166016-1.930664,2.600586v1.538086H536.541016z"/>
				<path fill="#F1F2F2" d="M558.521484,190.941406v-1.538086c0-1.43457-0.865234-2.600586-1.932617-2.600586H538.47168
					c-1.06543,0-1.930664,1.166016-1.930664,2.600586v1.538086H558.521484z"/>
			</g>
			<g>
				<path fill="#231F20" d="M580.503906,190.941406v-1.538086c0-1.43457-0.867188-2.600586-1.93457-2.600586h-18.116211
					c-1.067383,0-1.931641,1.166016-1.931641,2.600586v1.538086H580.503906z"/>
				<path fill="#F1F2F2" d="M602.483398,190.941406v-1.538086c0-1.43457-0.866211-2.600586-1.931641-2.600586h-18.119141
					c-1.064453,0-1.928711,1.166016-1.928711,2.600586v1.538086H602.483398z"/>
			</g>
			<g>
				<path fill="#231F20" d="M624.461914,190.941406v-1.538086c0-1.43457-0.863281-2.600586-1.929688-2.600586h-18.119141
					c-1.06543,0-1.929688,1.166016-1.929688,2.600586v1.538086H624.461914z"/>
				<path fill="#F1F2F2" d="M646.442383,190.941406v-1.538086c0-1.43457-0.863281-2.600586-1.930664-2.600586h-18.118164
					c-1.06543,0-1.931641,1.166016-1.931641,2.600586v1.538086H646.442383z"/>
			</g>
			<g>
				<path fill="#231F20" d="M668.424805,190.941406v-1.538086c0-1.43457-0.866211-2.600586-1.932617-2.600586H648.375
					c-1.066406,0-1.932617,1.166016-1.932617,2.600586v1.538086H668.424805z"/>
				<path fill="#F1F2F2" d="M672.5,186.802734h-2.144531c-1.067383,0-1.930664,1.166016-1.930664,2.600586v1.538086H672.5
					V186.802734z"/>
			</g>
		</g>
	</g>
</g>
</svg>
