<?xml version="1.0" encoding="UTF-8"?>
<!DOCTYPE svg PUBLIC "-//W3C//DTD SVG 1.1//EN" "http://www.w3.org/Graphics/SVG/1.1/DTD/svg11.dtd">
<!-- Creator: CorelDRAW X8 -->
<svg xmlns="http://www.w3.org/2000/svg" xml:space="preserve" width="39.7244mm" height="26.0461mm" version="1.1" style="shape-rendering:geometricPrecision; text-rendering:geometricPrecision; image-rendering:optimizeQuality; fill-rule:evenodd; clip-rule:evenodd"
viewBox="0 0 3167 2076"
 xmlns:xlink="http://www.w3.org/1999/xlink">
 <defs>
  <style type="text/css">
   <![CDATA[
    .fil6 {fill:#00A0C6;fill-rule:nonzero}
    .fil5 {fill:#25A9E0;fill-rule:nonzero}
    .fil16 {fill:#2B2161;fill-rule:nonzero}
    .fil7 {fill:#535667;fill-rule:nonzero}
    .fil80 {fill:#66331C;fill-rule:nonzero}
    .fil18 {fill:#679CE0;fill-rule:nonzero}
    .fil78 {fill:#6B5561;fill-rule:nonzero}
    .fil76 {fill:#6D0809;fill-rule:nonzero}
    .fil75 {fill:#6F0809;fill-rule:nonzero}
    .fil74 {fill:#71080A;fill-rule:nonzero}
    .fil73 {fill:#73090A;fill-rule:nonzero}
    .fil9 {fill:#73C7F0;fill-rule:nonzero}
    .fil72 {fill:#75090B;fill-rule:nonzero}
    .fil71 {fill:#770A0B;fill-rule:nonzero}
    .fil87 {fill:#77B9B7;fill-rule:nonzero}
    .fil70 {fill:#790A0C;fill-rule:nonzero}
    .fil69 {fill:#7B0B0D;fill-rule:nonzero}
    .fil68 {fill:#7D0B0D;fill-rule:nonzero}
    .fil93 {fill:#7EB907;fill-rule:nonzero}
    .fil67 {fill:#800C0E;fill-rule:nonzero}
    .fil66 {fill:#810C0E;fill-rule:nonzero}
    .fil65 {fill:#840D0F;fill-rule:nonzero}
    .fil64 {fill:#860D10;fill-rule:nonzero}
    .fil63 {fill:#880E10;fill-rule:nonzero}
    .fil62 {fill:#8B0E11;fill-rule:nonzero}
    .fil61 {fill:#8D0F12;fill-rule:nonzero}
    .fil60 {fill:#8F0F12;fill-rule:nonzero}
    .fil59 {fill:#921013;fill-rule:nonzero}
    .fil58 {fill:#941114;fill-rule:nonzero}
    .fil57 {fill:#971115;fill-rule:nonzero}
    .fil88 {fill:#97D3D1;fill-rule:nonzero}
    .fil56 {fill:#991215;fill-rule:nonzero}
    .fil55 {fill:#9C1216;fill-rule:nonzero}
    .fil91 {fill:#9CC426;fill-rule:nonzero}
    .fil54 {fill:#9E1317;fill-rule:nonzero}
    .fil86 {fill:#9E4214;fill-rule:nonzero}
    .fil84 {fill:#9E5127;fill-rule:nonzero}
    .fil53 {fill:#A01317;fill-rule:nonzero}
    .fil52 {fill:#A31418;fill-rule:nonzero}
    .fil51 {fill:#A61519;fill-rule:nonzero}
    .fil50 {fill:#A8151A;fill-rule:nonzero}
    .fil49 {fill:#AB161A;fill-rule:nonzero}
    .fil94 {fill:#ADD91D;fill-rule:nonzero}
    .fil48 {fill:#AE161B;fill-rule:nonzero}
    .fil90 {fill:#AE5232;fill-rule:nonzero}
    .fil17 {fill:#AEB7C0;fill-rule:nonzero}
    .fil47 {fill:#B0171C;fill-rule:nonzero}
    .fil46 {fill:#B3181D;fill-rule:nonzero}
    .fil45 {fill:#B5181D;fill-rule:nonzero}
    .fil44 {fill:#B8191E;fill-rule:nonzero}
    .fil89 {fill:#B85E3B;fill-rule:nonzero}
    .fil43 {fill:#BB191F;fill-rule:nonzero}
    .fil15 {fill:#BDD1E9;fill-rule:nonzero}
    .fil42 {fill:#BE1A20;fill-rule:nonzero}
    .fil41 {fill:#C11B21;fill-rule:nonzero}
    .fil40 {fill:#C31B21;fill-rule:nonzero}
    .fil39 {fill:#C41C22;fill-rule:nonzero}
    .fil38 {fill:#C51C22;fill-rule:nonzero}
    .fil37 {fill:#C61C22;fill-rule:nonzero}
    .fil36 {fill:#C81C22;fill-rule:nonzero}
    .fil35 {fill:#CA1C22;fill-rule:nonzero}
    .fil34 {fill:#CC1C22;fill-rule:nonzero}
    .fil83 {fill:#CCA666;fill-rule:nonzero}
    .fil82 {fill:#CCB38A;fill-rule:nonzero}
    .fil8 {fill:#CCF2FA;fill-rule:nonzero}
    .fil33 {fill:#CD1C22;fill-rule:nonzero}
    .fil32 {fill:#CF1C22;fill-rule:nonzero}
    .fil31 {fill:#D11C22;fill-rule:nonzero}
    .fil30 {fill:#D31C22;fill-rule:nonzero}
    .fil3 {fill:#D3E0F0;fill-rule:nonzero}
    .fil29 {fill:#D51C22;fill-rule:nonzero}
    .fil28 {fill:#D71C22;fill-rule:nonzero}
    .fil27 {fill:#D91C23;fill-rule:nonzero}
    .fil13 {fill:#D92A19;fill-rule:nonzero}
    .fil92 {fill:#D9F146;fill-rule:nonzero}
    .fil26 {fill:#DC1C23;fill-rule:nonzero}
    .fil25 {fill:#DE1C23;fill-rule:nonzero}
    .fil24 {fill:#E11C23;fill-rule:nonzero}
    .fil23 {fill:#E21C23;fill-rule:nonzero}
    .fil22 {fill:#E51C23;fill-rule:nonzero}
    .fil2 {fill:#E5EDF6;fill-rule:nonzero}
    .fil21 {fill:#E81C23;fill-rule:nonzero}
    .fil20 {fill:#EA1C23;fill-rule:nonzero}
    .fil0 {fill:#EBF1F8;fill-rule:nonzero}
    .fil19 {fill:#EC1C24;fill-rule:nonzero}
    .fil11 {fill:#F25333;fill-rule:nonzero}
    .fil14 {fill:#F94D30;fill-rule:nonzero}
    .fil12 {fill:#F9AE00;fill-rule:nonzero}
    .fil85 {fill:#FFAA40;fill-rule:nonzero}
    .fil77 {fill:#FFC500;fill-rule:nonzero}
    .fil81 {fill:#FFD080;fill-rule:nonzero}
    .fil79 {fill:#FFE0AD;fill-rule:nonzero}
    .fil10 {fill:#FFED7D;fill-rule:nonzero}
    .fil4 {fill:white;fill-rule:nonzero}
    .fil1 {fill:url(#id0);fill-rule:nonzero}
   ]]>
  </style>
  <radialGradient id="id0" gradientUnits="userSpaceOnUse" gradientTransform="matrix(1.0204 -0 -0 0.662004 -33 282)" cx="1614.82" cy="835.237" r="1217.35" fx="1614.82" fy="835.237">
   <stop offset="0" style="stop-opacity:1; stop-color:white"/>
   <stop offset="1" style="stop-opacity:1; stop-color:#E9F6FD"/>
  </radialGradient>
 </defs>
 <g id="Layer_x0020_1">
  <metadata id="CorelCorpID_0Corel-Layer"/>
  <g id="_930350456">
   <path class="fil0" d="M886 784c-32,0 -63,-5 -92,-17 57,-170 169,-316 315,-418 7,8 14,16 20,24 20,29 33,61 39,93 -55,74 -102,164 -131,274 -47,30 -100,44 -151,44zm-124 -31c-29,-17 -54,-39 -75,-68 -78,-111 -62,-239 60,-325 61,-43 136,-68 206,-68 47,0 91,11 128,35 -147,104 -260,253 -319,426zm307 -35c25,-84 61,-155 102,-215 2,78 -35,159 -102,215z"/>
   <path class="fil1" d="M3136 2037c-117,-12 -551,-22 -1113,-25l0 -218c4,5 7,9 11,13 13,13 24,22 23,45 0,11 4,20 28,20 13,0 23,21 44,21 15,-1 43,-21 50,-21 16,0 21,-9 21,-19 1,-20 9,-26 19,-36 10,-9 18,-22 18,-51l-3 -96c1,-28 -8,-41 -24,-58 -26,-30 -29,-46 -29,-74 1,-27 -15,-69 -56,-69 -35,0 -48,31 -49,56 0,24 -11,27 -35,52 -6,6 -13,14 -18,24l0 -254 -420 -209 -1 -177 2 0c5,0 11,-2 14,-7 26,-33 65,-52 107,-52 54,0 103,31 125,81 3,6 9,10 16,10 7,0 13,-4 16,-10 22,-50 71,-81 125,-81 1,0 1,0 2,0 0,87 4,175 25,254 0,0 0,0 0,0 0,0 -11,-38 -50,-38 -6,0 -13,1 -20,3 0,0 -14,-56 -65,-56 -2,0 -5,0 -7,0 -57,5 -64,50 -66,61 0,0 -5,-1 -12,-1 -19,0 -56,6 -77,53l304 0c11,34 25,65 45,93 77,112 185,180 229,204l13 7 14 -7c43,-24 152,-92 228,-204 72,-103 77,-245 77,-382l0 -40 0 -44 -16 -8c-30,-13 -123,-52 -234,-65 -116,-314 -413,-545 -762,-565 56,-46 125,-89 212,-122 81,-30 165,-45 247,-45 284,0 551,173 657,454 41,109 52,221 40,328l1 1c-26,126 -18,259 30,388 68,179 206,249 286,463 51,133 58,273 28,403zm-3089 -1c-120,-406 92,-841 494,-992 152,-58 277,-28 453,-82 3,5 6,11 9,17 3,6 10,10 16,10l1 0c6,0 12,-4 15,-10 8,-17 20,-33 34,-45 20,-9 40,-19 59,-30 10,-2 19,-3 29,-3 1,0 1,0 1,0 55,0 105,33 126,84 3,7 10,10 17,10 6,0 13,-3 16,-10 22,-51 71,-84 126,-84 42,0 80,19 107,52 3,5 9,8 15,8l0 0 0 180 -413 206 0 393c-5,-2 -10,-4 -16,-5 -6,0 -11,-1 -16,-1 -53,0 -77,45 -77,45 0,0 -6,2 -14,6 0,0 0,0 -1,0 0,0 0,0 -1,1 0,0 0,0 -1,0 0,0 -1,1 -2,1 0,0 0,0 0,0 -20,10 -49,32 -51,71 0,1 0,3 0,5 1,56 48,82 87,82l88 0 0 67c-542,3 -965,12 -1101,24zm598 -860c-14,0 -26,12 -26,26l0 461c0,14 12,26 26,26l314 0c14,0 26,-12 26,-26l0 -461c0,-14 -12,-26 -26,-26l-314 0zm526 -19l0 28 22 0 0 122 90 -44 0 -78 20 0 0 -28 -132 0zm704 -227c-7,-424 -154,-633 -234,-714 119,51 384,201 468,549 -39,13 -69,26 -83,32l-17 8 0 62c-1,0 -1,0 -2,0 -52,0 -100,24 -132,63zm-585 -2c-27,-32 -64,-53 -106,-60 45,-33 85,-71 118,-114 -7,53 -11,111 -12,174zm306 -2l-1 0 1 -720c56,48 246,247 255,717 -32,-34 -77,-57 -126,-57 -50,0 -96,22 -129,60zm-24 -1c-33,-37 -79,-59 -129,-59 0,0 0,0 -1,0 -50,0 -96,22 -128,59 1,-78 8,-149 18,-213 39,-61 68,-127 84,-198 1,0 26,-148 156,-288l0 699z"/>
   <path class="fil2" d="M1584 2076c-875,0 -1584,-14 -1584,-32 0,-3 16,-6 47,-8 1,3 2,7 3,11l3083 0c1,-3 2,-7 3,-10 20,2 31,5 31,7 0,18 -709,32 -1583,32z"/>
   <path class="fil3" d="M3133 2047l-3083 0c-1,-4 -2,-8 -3,-11 136,-12 559,-21 1101,-24l0 12 875 0 0 -12c562,3 996,13 1113,25 -1,3 -2,7 -3,10z"/>
   <path class="fil4" d="M2206 1614l232 0c0,0 -10,-24 -39,-14 0,0 -10,-33 -45,-23 0,0 -11,-40 -47,-36 -37,3 -42,32 -43,39 0,0 -39,-8 -58,34z"/>
   <path class="fil4" d="M1737 1178l358 0c0,0 -17,-37 -61,-22 0,0 -15,-50 -70,-35 0,0 -15,-61 -72,-56 -57,5 -64,50 -66,61 0,0 -60,-12 -89,52z"/>
   <path class="fil4" d="M291 1438l357 0c0,0 -16,-37 -61,-22 0,0 -14,-50 -69,-35 0,0 -16,-61 -73,-56 -56,5 -63,50 -66,61 0,0 -60,-12 -88,52z"/>
   <path class="fil5" d="M1490 206c-152,71 -453,267 -483,718 -32,-36 -77,-58 -127,-58 -46,0 -89,18 -121,50 51,-372 355,-668 731,-710z"/>
   <path class="fil5" d="M1525 216c-80,81 -227,289 -235,712 -32,-39 -80,-62 -132,-62 -49,0 -94,22 -127,58 32,-464 358,-651 494,-708z"/>
   <path class="fil5" d="M1443 866c-50,0 -97,22 -129,59 10,-477 204,-675 258,-721l0 721c-33,-37 -79,-59 -129,-59z"/>
   <path class="fil5" d="M1596 206c56,48 246,247 255,718 -32,-36 -77,-58 -126,-58 -49,0 -96,22 -129,60l-1 0 1 -720z"/>
   <path class="fil5" d="M1875 930c-7,-424 -154,-633 -234,-714 136,58 462,245 493,709 -33,-36 -78,-58 -127,-58 -52,0 -100,24 -132,63z"/>
   <path class="fil5" d="M2407 917c-31,-31 -74,-50 -121,-50 -50,0 -96,23 -129,60 -27,-452 -329,-650 -481,-721 377,42 681,338 731,711z"/>
   <path class="fil6" d="M1550 953c-27,-33 -65,-52 -107,-52 -55,0 -104,33 -126,84 -6,13 -27,13 -33,0 -21,-51 -71,-84 -126,-84 -53,0 -100,30 -123,78 -3,6 -9,10 -15,10l-1 0c-6,0 -13,-4 -16,-10 -23,-48 -70,-78 -123,-78 -57,0 -109,36 -128,90 -3,8 -12,13 -20,11 -9,-2 -15,-9 -14,-18 22,-444 389,-803 836,-818l3 -1 1 0c0,0 7,-132 26,-132 19,0 26,132 26,132l1 0 4 1c447,16 813,375 834,819 0,9 -6,17 -14,19l-4 0c-7,0 -13,-4 -16,-11 -20,-55 -71,-91 -129,-91 -52,0 -101,31 -123,79 -4,6 -10,10 -16,10 -7,0 -14,-4 -16,-10 -23,-48 -71,-79 -124,-79 -54,0 -103,31 -125,81 -3,6 -9,10 -16,10 -7,0 -13,-4 -16,-10 -22,-50 -71,-81 -125,-81 -42,0 -81,19 -107,52 -3,5 -9,7 -14,7l-2 0 2 615c10,7 16,17 16,29l0 285c0,60 -48,109 -106,109 -58,0 -105,-49 -105,-109l0 -129c0,-19 16,-34 35,-34 19,0 34,15 34,34l0 129c0,22 16,40 36,40 21,0 37,-18 37,-40l1 -285c0,-12 6,-22 15,-29l-2 -615c-6,0 -12,-3 -15,-8zm22 -749c-54,46 -249,244 -258,721 32,-37 79,-59 129,-59 50,0 96,22 129,59l0 -721zm-282 724c8,-423 155,-631 235,-712 -136,57 -462,244 -494,707 33,-35 77,-57 127,-57 52,0 100,24 132,62zm-283 -4c30,-451 331,-647 483,-718 -376,42 -680,338 -731,710 32,-32 75,-50 121,-50 50,0 95,22 127,58zm634 -708c80,81 227,290 234,714 32,-39 80,-63 132,-63 49,0 95,22 126,58 -30,-464 -356,-651 -492,-709zm210 707c-9,-470 -199,-669 -255,-717l-1 720 1 0c33,-38 79,-60 129,-60 49,0 94,23 126,57zm556 -6c-50,-373 -354,-669 -731,-711 152,71 454,269 481,721 33,-37 79,-60 129,-60 47,0 90,19 121,50z"/>
   <path class="fil7" d="M1567 1576c-9,7 -16,17 -16,29l0 285c0,22 -16,40 -37,40 -20,0 -36,-18 -36,-40l0 -129c0,-19 -15,-34 -34,-34 -19,0 -35,15 -35,34l0 129c0,60 48,109 105,109 58,0 106,-49 106,-109l0 -285c0,-12 -6,-22 -16,-29l-2 -615 -37 0 2 615z"/>
   <path class="fil7" d="M1610 165c0,0 -7,-132 -26,-132 -19,0 -26,132 -26,132l53 0 -1 0z"/>
   <path class="fil4" d="M2272 359c0,108 -87,195 -195,195 -108,0 -195,-87 -195,-195 0,-107 87,-195 195,-195 108,0 195,88 195,195z"/>
   <path class="fil8" d="M2246 359c0,94 -76,169 -169,169 -93,0 -169,-75 -169,-169 0,-93 76,-169 169,-169 93,0 169,76 169,169z"/>
   <path class="fil9" d="M2240 314c-16,3 -19,15 -39,15 -23,0 -23,-16 -45,-16 -23,0 -23,16 -46,16 -22,0 -22,-16 -45,-16 -23,0 -23,16 -45,16 -23,0 -23,-16 -46,-16 -23,0 -23,16 -45,16 -8,0 -13,-2 -18,-4 -2,11 -3,22 -3,34 0,94 76,169 169,169 93,0 169,-75 169,-169 0,-15 -2,-31 -6,-45z"/>
   <path class="fil5" d="M2246 374c-8,-5 -14,-12 -28,-12 -23,0 -23,16 -46,16 -22,0 -22,-16 -45,-16 -23,0 -23,16 -46,16 -22,0 -22,-16 -45,-16 -23,0 -23,16 -45,16 -23,0 -23,-16 -46,-16 -19,0 -22,12 -36,15 9,85 81,151 168,151 89,0 161,-68 169,-154z"/>
   <path class="fil9" d="M1975 412c0,5 -4,9 -9,9 -5,0 -9,-4 -9,-9 0,-5 4,-9 9,-9 5,0 9,4 9,9z"/>
   <path class="fil9" d="M2074 495c0,5 -4,9 -9,9 -5,0 -8,-4 -8,-9 0,-5 3,-9 8,-9 5,0 9,4 9,9z"/>
   <path class="fil9" d="M2112 411c0,5 -4,9 -9,9 -5,0 -9,-4 -9,-9 0,-5 4,-9 9,-9 5,0 9,4 9,9z"/>
   <path class="fil9" d="M2191 426c0,8 -7,15 -16,15 -9,0 -16,-7 -16,-15 0,-9 7,-16 16,-16 9,0 16,7 16,16z"/>
   <path class="fil9" d="M2050 441c0,9 -7,16 -16,16 -8,0 -15,-7 -15,-16 0,-8 7,-15 15,-15 9,0 16,7 16,15z"/>
   <polygon class="fil9" points="1981,467 1977,471 1973,467 1977,463 "/>
   <polygon class="fil9" points="2143,484 2139,488 2135,484 2139,480 "/>
   <polygon class="fil9" points="2106,456 2102,460 2098,456 2102,452 "/>
   <polygon class="fil9" points="2226,392 2222,396 2218,392 2222,388 "/>
   <path class="fil4" d="M1285 359c0,108 -87,195 -195,195 -108,0 -195,-87 -195,-195 0,-108 87,-195 195,-195 108,0 195,87 195,195z"/>
   <path class="fil10" d="M1259 359c0,94 -76,169 -169,169 -94,0 -169,-75 -169,-169 0,-93 75,-169 169,-169 93,0 169,76 169,169z"/>
   <path class="fil11" d="M1180 346c0,0 -25,23 -17,54 8,30 -14,15 -11,-24 3,-39 -8,-63 -36,-93 -27,-29 -9,-58 4,-58 0,0 -32,-12 -55,18 -20,24 -14,62 -8,88 5,26 1,68 -20,81 -15,10 -34,-9 -27,-28 0,0 -55,31 -30,90 3,10 11,16 12,23 28,20 61,31 98,31 41,0 79,-15 109,-39 21,-21 23,-46 12,-63 -17,-29 -37,-36 -31,-80z"/>
   <path class="fil12" d="M1172 450c-23,34 -70,-4 -56,-28 13,-25 5,-58 -8,-71 -14,-12 -21,-52 -21,-52 0,0 -5,10 2,55 7,44 -18,83 -45,100 -27,17 -48,-21 -48,-21 -4,49 24,77 32,84 19,7 40,11 62,11 34,0 65,-9 91,-26 23,-32 2,-77 2,-77 0,0 -2,10 -11,25z"/>
   <path class="fil4" d="M2647 849l0 -44 -16 -8c-36,-16 -163,-69 -303,-69 -139,0 -266,53 -302,69l-17 8 0 84c0,137 6,279 77,382 77,112 185,180 229,204l13 7 14 -7c43,-24 152,-92 228,-204 72,-103 77,-245 77,-382l0 -40z"/>
   <path class="fil13" d="M2038 823c0,10 -1,66 -1,66 0,132 6,270 72,366 75,109 182,175 219,195 37,-20 145,-86 219,-195 67,-96 72,-234 72,-366l0 -40c0,0 0,-16 0,-26 -32,-15 -156,-67 -291,-67 -135,0 -258,52 -290,67z"/>
   <path class="fil4" d="M2328 1450l-3 -2 0 0c1,1 2,2 3,2 37,-20 145,-86 219,-195 67,-96 72,-234 72,-366l0 -40 0 40c0,132 -5,270 -72,366 -74,109 -182,175 -219,195z"/>
   <path class="fil14" d="M2328 1450c-1,0 -2,-1 -3,-2l0 -691 3 -1c135,0 259,52 291,67 0,0 0,1 0,1 0,10 0,25 0,25l0 40c0,132 -5,270 -72,366 -74,109 -182,175 -219,195z"/>
   <path class="fil4" d="M2413 943c0,0 -84,106 -121,153 -22,-24 -47,-50 -47,-50 -16,-16 -41,-16 -57,-1 -15,15 -16,40 -1,56l80 83c8,8 19,12 30,12 12,-1 22,-6 29,-15l149 -189c14,-17 11,-42 -6,-56 -17,-13 -42,-10 -56,7z"/>
   <path class="fil15" d="M2600 1443c0,-15 12,-27 27,-27 15,0 28,12 28,27 0,16 -13,28 -28,28 -15,0 -27,-12 -27,-28zm-17 0c0,25 20,45 44,45 25,0 45,-20 45,-45 0,-24 -20,-44 -45,-44 -24,0 -44,20 -44,44z"/>
   <path class="fil15" d="M259 1620c0,-15 13,-28 28,-28 15,0 27,13 27,28 0,15 -12,27 -27,27 -15,0 -28,-12 -28,-27zm-17 0c0,24 20,44 45,44 25,0 44,-20 44,-44 0,-25 -19,-45 -44,-45 -25,0 -45,20 -45,45z"/>
   <path class="fil15" d="M2683 1793c-5,0 -9,4 -9,9 0,5 4,9 9,9l85 0c5,0 9,-4 9,-9 0,-5 -4,-9 -9,-9l-85 0z"/>
   <path class="fil15" d="M2805 1793c-5,0 -9,4 -9,9 0,5 4,9 9,9l16 0c4,0 8,-4 8,-9 0,-5 -4,-9 -8,-9l-16 0z"/>
   <path class="fil15" d="M426 916c-4,0 -8,4 -8,8 0,5 4,9 8,9l86 0c4,0 8,-4 8,-9 0,-4 -4,-8 -8,-8l-86 0z"/>
   <path class="fil15" d="M548 916c-4,0 -8,4 -8,8 0,5 4,9 8,9l16 0c5,0 9,-4 9,-9 0,-4 -4,-8 -9,-8l-16 0z"/>
   <path class="fil15" d="M2388 1801l-22 0 0 -22c0,-4 -3,-8 -8,-8 -5,0 -9,4 -9,8l0 22 -22 0c-4,0 -8,4 -8,9 0,5 4,8 8,8l22 0 0 22c0,5 4,9 9,9 5,0 8,-4 8,-9l0 -22 22 0c5,0 9,-3 9,-8 0,-5 -4,-9 -9,-9z"/>
   <path class="fil15" d="M2548 499l-21 0 0 -22c0,-5 -4,-9 -9,-9 -5,0 -9,4 -9,9l0 22 -21 0c-5,0 -9,4 -9,8 0,5 4,9 9,9l21 0 0 22c0,4 4,8 9,8 5,0 9,-4 9,-8l0 -22 21 0c5,0 9,-4 9,-9 0,-4 -4,-8 -9,-8z"/>
   <path class="fil15" d="M661 1811l-22 0 0 -22c0,-5 -4,-9 -9,-9 -4,0 -8,4 -8,9l0 22 -22 0c-5,0 -8,3 -8,8 0,5 3,9 8,9l22 0 0 21c0,5 4,9 8,9 5,0 9,-4 9,-9l0 -21 22 0c5,0 8,-4 8,-9 0,-5 -3,-8 -8,-8z"/>
   <path class="fil16" d="M985 1663c0,14 -12,26 -26,26l-314 0c-14,0 -26,-12 -26,-26l0 -461c0,-14 12,-26 26,-26l314 0c14,0 26,12 26,26l0 461z"/>
   <polygon class="fil4" points="964,1581 889,1651 641,1651 641,1195 964,1195 "/>
   <path class="fil5" d="M803 1173c-15,0 -27,-12 -27,-26 0,-15 12,-27 27,-27 14,0 26,12 26,27 0,14 -12,26 -26,26zm41 -32c-3,-20 -20,-36 -41,-36 -21,0 -39,16 -42,36l-54 0 0 65 192 0 0 -65 -55 0z"/>
   <polygon class="fil17" points="964,1582 889,1582 889,1651 "/>
   <polygon class="fil18" points="762,1529 757,1534 762,1540 853,1540 858,1534 853,1529 "/>
   <polygon class="fil18" points="872,1529 867,1534 872,1540 928,1540 933,1534 928,1529 "/>
   <polygon class="fil18" points="759,1557 754,1563 759,1568 795,1568 800,1563 795,1557 "/>
   <polygon class="fil18" points="818,1557 813,1563 818,1568 928,1568 933,1563 928,1557 "/>
   <path class="fil18" d="M726 1507c0,0 -25,36 -34,49 -5,-8 -12,-18 -12,-18 -2,-3 -7,-4 -10,-2 -3,3 -4,7 -2,10l18 26 6 3 6 -3 40 -57c2,-3 1,-8 -2,-10 -3,-2 -7,-1 -10,2z"/>
   <polygon class="fil18" points="762,1436 757,1441 762,1447 853,1447 858,1441 853,1436 "/>
   <polygon class="fil18" points="872,1436 867,1441 872,1447 928,1447 933,1441 928,1436 "/>
   <polygon class="fil18" points="759,1465 754,1470 759,1475 795,1475 800,1470 795,1465 "/>
   <polygon class="fil18" points="818,1465 813,1470 818,1475 928,1475 933,1470 928,1465 "/>
   <path class="fil18" d="M726 1414c0,0 -25,37 -34,49 -5,-8 -12,-18 -12,-18 -2,-3 -7,-4 -10,-1 -3,2 -4,6 -2,9l18 26 6 4 6 -4 40 -57c2,-3 1,-7 -2,-10 -3,-2 -7,-1 -10,2z"/>
   <path class="fil19" d="M826 1384l-19 0 19 11 0 -11zm-35 0l-19 0 0 11 19 -11z"/>
   <path class="fil19" d="M772 1384l19 0 1 -1 -20 0 0 1zm35 0l19 0 0 -1 -20 0 1 1z"/>
   <path class="fil20" d="M772 1383l20 0 1 -1 -21 0 0 1zm34 0l20 0 0 -1 -21 0 1 1z"/>
   <path class="fil21" d="M772 1382l21 0 1 0 -22 0 0 0zm33 0l21 0 0 0 -22 0 1 0z"/>
   <path class="fil22" d="M772 1382l22 0 1 -1 -23 0 0 1zm32 0l22 0 0 -1 -23 0 1 1z"/>
   <path class="fil23" d="M772 1381l23 0 2 -1 -25 0 0 1zm31 0l23 0 0 -1 -25 0 2 1z"/>
   <path class="fil24" d="M772 1380l25 0 1 -1 -26 0 0 1zm29 0l25 0 0 -1 -26 0 1 1z"/>
   <path class="fil25" d="M772 1379l26 0 1 0 -27 0 0 0zm28 0l26 0 0 0 -27 0 1 0z"/>
   <polygon class="fil26" points="772,1379 799,1379 799,1379 799,1379 826,1379 826,1378 772,1378 "/>
   <polygon class="fil27" points="772,1378 826,1378 826,1377 772,1377 "/>
   <polygon class="fil28" points="772,1377 826,1377 826,1377 772,1377 "/>
   <polygon class="fil29" points="772,1377 826,1377 826,1376 772,1376 "/>
   <polygon class="fil30" points="772,1376 826,1376 826,1375 772,1375 "/>
   <polygon class="fil31" points="772,1375 826,1375 826,1375 772,1375 "/>
   <polygon class="fil32" points="772,1375 826,1375 826,1374 772,1374 "/>
   <polygon class="fil33" points="772,1374 826,1374 826,1373 772,1373 "/>
   <polygon class="fil34" points="772,1373 826,1373 826,1372 772,1372 "/>
   <polygon class="fil35" points="772,1372 826,1372 826,1372 772,1372 "/>
   <polygon class="fil36" points="772,1372 826,1372 826,1371 772,1371 "/>
   <polygon class="fil37" points="772,1371 826,1371 826,1370 772,1370 "/>
   <polygon class="fil38" points="772,1370 826,1370 826,1370 772,1370 "/>
   <polygon class="fil39" points="772,1370 826,1370 826,1369 772,1369 "/>
   <polygon class="fil40" points="772,1369 826,1369 826,1368 772,1368 "/>
   <polygon class="fil41" points="772,1368 826,1368 826,1367 772,1367 "/>
   <polygon class="fil42" points="772,1367 826,1367 826,1367 772,1367 "/>
   <polygon class="fil43" points="772,1367 826,1367 826,1366 772,1366 "/>
   <polygon class="fil44" points="772,1366 826,1366 826,1365 772,1365 "/>
   <polygon class="fil45" points="772,1365 826,1365 826,1365 772,1365 "/>
   <polygon class="fil46" points="772,1365 826,1365 826,1364 772,1364 "/>
   <polygon class="fil47" points="772,1364 826,1364 826,1363 772,1363 "/>
   <polygon class="fil48" points="772,1363 826,1363 826,1362 772,1362 "/>
   <polygon class="fil49" points="772,1362 826,1362 826,1362 772,1362 "/>
   <polygon class="fil50" points="772,1362 826,1362 826,1361 772,1361 "/>
   <polygon class="fil51" points="772,1361 826,1361 826,1360 772,1360 "/>
   <polygon class="fil52" points="772,1360 826,1360 826,1360 772,1360 "/>
   <polygon class="fil53" points="772,1360 826,1360 826,1359 772,1359 "/>
   <polygon class="fil54" points="772,1359 826,1359 826,1358 772,1358 "/>
   <polygon class="fil55" points="772,1358 826,1358 826,1357 772,1357 "/>
   <polygon class="fil56" points="772,1357 826,1357 826,1357 772,1357 "/>
   <polygon class="fil57" points="772,1357 826,1357 826,1356 772,1356 "/>
   <polygon class="fil58" points="772,1356 826,1356 826,1355 772,1355 "/>
   <polygon class="fil59" points="772,1355 826,1355 826,1355 772,1355 "/>
   <polygon class="fil60" points="772,1355 826,1355 826,1354 772,1354 "/>
   <polygon class="fil61" points="772,1354 826,1354 826,1353 772,1353 "/>
   <polygon class="fil62" points="772,1353 826,1353 826,1352 772,1352 "/>
   <polygon class="fil63" points="772,1352 826,1352 826,1352 772,1352 "/>
   <polygon class="fil64" points="772,1352 826,1352 826,1351 772,1351 "/>
   <polygon class="fil65" points="772,1351 826,1351 826,1350 772,1350 "/>
   <polygon class="fil66" points="772,1350 826,1350 826,1350 772,1350 "/>
   <polygon class="fil67" points="772,1350 826,1350 826,1349 772,1349 "/>
   <polygon class="fil68" points="772,1349 826,1349 826,1348 772,1348 "/>
   <polygon class="fil69" points="772,1348 826,1348 826,1347 772,1347 "/>
   <polygon class="fil70" points="772,1347 826,1347 826,1347 772,1347 "/>
   <polygon class="fil71" points="772,1347 826,1347 826,1346 772,1346 "/>
   <polygon class="fil72" points="772,1346 826,1346 826,1345 772,1345 "/>
   <polygon class="fil73" points="772,1345 826,1345 826,1345 772,1345 "/>
   <polygon class="fil74" points="772,1345 826,1345 826,1344 772,1344 "/>
   <polygon class="fil75" points="772,1344 826,1344 826,1343 772,1343 "/>
   <polygon class="fil76" points="772,1343 826,1343 826,1343 772,1343 "/>
   <polygon class="fil77" points="738,1297 741,1290 740,1282 745,1276 745,1268 751,1264 753,1256 761,1253 764,1246 772,1245 778,1239 786,1240 792,1236 800,1238 807,1236 814,1240 821,1239 827,1245 835,1246 838,1253 846,1256 848,1264 854,1268 854,1276 859,1282 858,1290 861,1297 858,1304 859,1312 854,1318 854,1326 848,1330 846,1338 838,1341 835,1348 827,1349 821,1355 814,1354 807,1358 800,1356 792,1358 786,1354 778,1355 772,1349 764,1348 761,1341 753,1338 751,1330 745,1326 745,1318 740,1312 741,1304 "/>
   <path class="fil78" d="M641 1344l-4 -1 -2 -3 6 -11 0 15zm-9 -8l-5 -2 14 -25 0 11 -9 16z"/>
   <path class="fil4" d="M649 1350l-5 -6 -3 0 0 -15 50 -84 3 4 7 1 3 5 -55 95zm-8 -30l0 -11 39 -66 2 2 4 -1 -45 76z"/>
   <polygon class="fil79" points="2023,2024 1152,2024 1152,1347 1587,1130 2023,1347 "/>
   <polygon class="fil80" points="1148,2024 1620,2024 1620,1934 1148,1934 "/>
   <polygon class="fil81" points="2023,2024 1611,2024 1611,1488 1813,1401 2023,1488 "/>
   <polygon class="fil82" points="1997,1477 1813,1401 1996,1477 "/>
   <path class="fil83" d="M2023 1538c-81,-40 -199,-99 -210,-104 -12,5 -122,59 -202,99l0 -45 202 -87 184 76 26 14 0 47z"/>
   <polygon class="fil84" points="1611,2024 2023,2024 2023,1934 1611,1934 "/>
   <polygon class="fil85" points="1914,1934 1891,1934 1891,1743 1739,1743 1739,1934 1715,1934 1715,1718 1914,1718 "/>
   <path class="fil86" d="M1914 2024l-23 0 0 -90 23 0 0 90zm-175 0l-24 0 0 -90 24 0 0 90z"/>
   <polygon class="fil4" points="1715,1622 1914,1622 1914,1562 1715,1562 "/>
   <path class="fil87" d="M1818 1568l0 49 91 0 0 -49 -91 0zm-98 49l92 0 0 -49 -92 0 0 49z"/>
   <polygon class="fil88" points="1840,1617 1832,1617 1861,1568 1868,1568 "/>
   <polygon class="fil88" points="1864,1617 1847,1617 1876,1568 1892,1568 "/>
   <polygon class="fil88" points="1739,1617 1732,1617 1760,1568 1767,1568 "/>
   <polygon class="fil88" points="1763,1617 1747,1617 1775,1568 1792,1568 "/>
   <polygon class="fil4" points="1235,1961 1527,1961 1527,1658 1235,1658 "/>
   <path class="fil87" d="M1386 1666l0 72 134 0 0 -72 -134 0zm-143 72l134 0 0 -72 -134 0 0 72z"/>
   <polygon class="fil87" points="1243,1952 1377,1952 1377,1748 1243,1748 "/>
   <polygon class="fil87" points="1386,1952 1520,1952 1520,1748 1386,1748 "/>
   <polygon class="fil88" points="1418,1738 1407,1738 1449,1666 1459,1666 "/>
   <polygon class="fil88" points="1454,1738 1429,1738 1471,1666 1495,1666 "/>
   <polygon class="fil88" points="1269,1738 1259,1738 1301,1666 1311,1666 "/>
   <polygon class="fil88" points="1305,1738 1281,1738 1323,1666 1347,1666 "/>
   <path class="fil88" d="M1278 1952l-35 0 0 -44c2,-6 4,-12 5,-19l82 -141 47 0 0 34 -99 170zm-35 -97l0 -38 40 -69 22 0 -62 107z"/>
   <polygon class="fil88" points="1436,1952 1386,1952 1386,1923 1487,1748 1520,1748 1520,1808 "/>
   <polygon class="fil88" points="1386,1881 1386,1842 1440,1748 1463,1748 "/>
   <polygon class="fil4" points="1235,1542 1328,1542 1328,1365 1235,1365 "/>
   <polygon class="fil87" points="1244,1413 1319,1413 1319,1372 1244,1372 "/>
   <polygon class="fil87" points="1244,1533 1319,1533 1319,1418 1244,1418 "/>
   <polygon class="fil88" points="1259,1413 1253,1413 1276,1372 1282,1372 "/>
   <polygon class="fil88" points="1279,1413 1265,1413 1289,1372 1302,1372 "/>
   <path class="fil88" d="M1264 1533l-20 0 0 -30 49 -85 26 0 0 20 -55 95zm-20 -54l0 -22 22 -39 13 0 -35 61z"/>
   <polygon class="fil4" points="1494,1542 1587,1542 1587,1365 1494,1365 "/>
   <polygon class="fil87" points="1503,1413 1578,1413 1578,1372 1503,1372 "/>
   <polygon class="fil87" points="1503,1533 1578,1533 1578,1418 1503,1418 "/>
   <polygon class="fil88" points="1518,1413 1512,1413 1536,1372 1541,1372 "/>
   <polygon class="fil88" points="1538,1413 1524,1413 1548,1372 1561,1372 "/>
   <path class="fil88" d="M1523 1533l-20 0 0 -30 49 -85 26 0 0 20 -55 95zm-20 -54l0 -22 22 -39 13 0 -35 61z"/>
   <polygon class="fil4" points="1365,1542 1458,1542 1458,1365 1365,1365 "/>
   <polygon class="fil87" points="1373,1413 1449,1413 1449,1372 1373,1372 "/>
   <polygon class="fil87" points="1373,1533 1449,1533 1449,1418 1373,1418 "/>
   <polygon class="fil88" points="1388,1413 1382,1413 1406,1372 1412,1372 "/>
   <polygon class="fil88" points="1409,1413 1395,1413 1418,1372 1432,1372 "/>
   <path class="fil88" d="M1394 1533l-21 0 0 -30 49 -85 27 0 0 20 -55 95zm-21 -54l0 -22 23 -39 12 0 -35 61z"/>
   <polygon class="fil89" points="1739,2024 1891,2024 1891,1743 1739,1743 "/>
   <polygon class="fil4" points="1758,1903 1754,1907 1749,1903 1749,1871 1754,1867 1758,1871 "/>
   <polygon class="fil90" points="1769,1811 1860,1811 1860,1763 1769,1763 "/>
   <polygon class="fil90" points="1769,1875 1860,1875 1860,1827 1769,1827 "/>
   <polygon class="fil90" points="1769,1938 1860,1938 1860,1890 1769,1890 "/>
   <polygon class="fil90" points="1769,2002 1860,2002 1860,1954 1769,1954 "/>
   <path class="fil13" d="M1509 1517l19 38c0,0 267,-131 285,-140 17,9 288,143 288,143l19 -38 -307 -153 -304 150z"/>
   <polygon class="fil80" points="1303,1157 1171,1157 1171,1185 1193,1185 1193,1307 1283,1263 1283,1185 1303,1185 "/>
   <path class="fil82" d="M2023 1378c-137,-68 -422,-209 -436,-216 -14,7 -300,148 -435,213l0 -28 435 -217 436 217 0 31z"/>
   <path class="fil80" d="M1064 1349l19 38c0,0 486,-238 504,-247 18,9 510,253 510,253l19 -38 -529 -263 -523 257z"/>
   <path class="fil91" d="M2179 1872c-7,0 -35,20 -50,21 -21,0 -31,-21 -44,-21 -24,0 -28,-9 -28,-20 1,-23 -10,-32 -23,-45 -13,-14 -24,-28 -23,-77l2 -89c1,-28 14,-50 28,-64 24,-25 35,-28 35,-52 1,-25 14,-56 49,-56 41,0 57,42 56,69 0,28 3,44 29,74 16,17 25,30 24,58l3 96c0,29 -8,42 -18,51 -10,10 -18,16 -19,36 0,10 -5,19 -21,19z"/>
   <path class="fil92" d="M2198 1698c-3,0 -6,-3 -6,-6 0,-4 3,-6 6,-6 4,0 7,2 7,6 0,3 -3,6 -7,6z"/>
   <path class="fil92" d="M2144 1531c-3,0 -6,-3 -6,-6 0,-4 3,-7 6,-7 4,0 6,3 6,7 0,3 -2,6 -6,6z"/>
   <path class="fil92" d="M2048 1710c-4,0 -8,-4 -8,-8 0,-4 4,-8 8,-8 4,0 8,4 8,8 0,4 -4,8 -8,8z"/>
   <path class="fil92" d="M2102 1631c-4,0 -8,-3 -8,-8 0,-4 4,-7 8,-7 4,0 8,3 8,7 0,5 -4,8 -8,8z"/>
   <path class="fil80" d="M2132 1731c-4,0 -8,3 -8,8l0 285 16 0 0 -285c0,-4 -3,-8 -8,-8z"/>
   <polygon class="fil80" points="2104,1758 2127,1772 2133,1770 2131,1765 2108,1751 2102,1753 "/>
   <polygon class="fil80" points="2178,1757 2130,1805 2129,1810 2135,1810 2184,1762 2184,1757 "/>
   <polygon class="fil80" points="2181,1763 2197,1765 2202,1762 2198,1757 2182,1756 2177,1759 "/>
   <polygon class="fil80" points="2172,1743 2177,1761 2182,1763 2185,1758 2180,1741 2175,1738 "/>
   <polygon class="fil80" points="2135,1838 2085,1797 2083,1796 2062,1796 2058,1800 2062,1804 2083,1804 2080,1803 2130,1844 2135,1843 "/>
   <polygon class="fil80" points="2087,1799 2085,1779 2081,1775 2077,1780 2079,1800 2083,1804 "/>
   <path class="fil91" d="M1060 1945c41,0 113,0 132,0 19,0 57,-22 57,-64 0,-43 -47,-61 -47,-61 0,0 0,-74 -66,-85 -64,-10 -93,44 -93,44 0,0 -67,19 -70,79 -2,59 46,87 87,87z"/>
   <path class="fil93" d="M1142 1822c-16,4 -26,-32 -99,-40l-5 -1c-15,6 -62,27 -65,77 -2,59 46,87 87,87l132 0c19,0 57,-22 57,-64 0,-43 -47,-61 -47,-61 0,0 -28,-10 -60,2z"/>
   <path class="fil80" d="M1097 1888l0 136 17 0 0 -136c0,-5 -4,-9 -8,-9 -5,0 -9,4 -9,9z"/>
   <polygon class="fil80" points="1070,1921 1071,1927 1101,1952 1107,1951 1107,1945 1076,1921 "/>
   <path class="fil94" d="M1200 1915c-5,0 -9,-4 -9,-10 0,-5 4,-9 9,-9 6,0 10,4 10,9 0,6 -4,10 -10,10z"/>
   <path class="fil94" d="M1170 1851c-4,0 -8,-3 -8,-7 0,-4 4,-8 8,-8 4,0 7,4 7,8 0,4 -3,7 -7,7z"/>
   <path class="fil4" d="M1166 1776c0,7 -6,12 -12,12 -7,0 -13,-5 -13,-12 0,-7 6,-13 13,-13 6,0 12,6 12,13z"/>
   <path class="fil94" d="M1054 1882c-5,0 -10,-5 -10,-10 0,-6 5,-10 10,-10 6,0 11,4 11,10 0,5 -5,10 -11,10z"/>
   <polygon class="fil80" points="1134,1944 1105,1972 1105,1977 1111,1978 1146,1944 "/>
   <path class="fil93" d="M2288 2011c-4,-5 2,-9 -5,-17 -4,-5 -14,-5 -17,-11 -8,-12 -18,-11 -18,-11 0,0 -11,-1 -18,11 -4,6 -9,5 -14,11 -7,7 -1,12 -4,17 -3,5 -10,4 -10,13l92 0c0,-9 -3,-8 -6,-13z"/>
   <path class="fil93" d="M2225 1995c-7,-11 6,-20 -9,-37 -11,-11 -31,-10 -39,-24 -16,-27 -39,-24 -39,-24 0,0 -24,-3 -40,24 -8,14 -20,12 -30,23 -16,17 -2,29 -9,40 -7,11 -22,7 -22,27l201 0c0,-20 -6,-18 -13,-29z"/>
   <path class="fil91" d="M2131 2003c-5,-8 4,-14 -7,-26 -7,-8 -21,-7 -27,-17 -12,-19 -28,-17 -28,-17 0,0 -17,-2 -28,17 -6,10 -15,8 -22,16 -11,13 -1,21 -6,28 -5,8 -16,6 -16,20l143 0c0,-14 -4,-13 -9,-21z"/>
   <path class="fil91" d="M2246 2014c-2,-4 3,-7 -3,-12 -3,-4 -10,-4 -13,-8 -5,-10 -13,-9 -13,-9 0,0 -8,-1 -13,9 -3,4 -7,4 -10,7 -6,6 -1,10 -3,14 -3,3 -8,2 -8,9l68 0c0,-7 -2,-6 -5,-10z"/>
   <path class="fil93" d="M1171 2011c-3,-5 3,-9 -5,-17 -4,-5 -13,-5 -17,-11 -7,-12 -18,-11 -18,-11 0,0 -11,-1 -18,11 -4,6 -9,5 -14,11 -7,7 0,12 -4,17 -3,5 -10,4 -10,13l92 0c0,-9 -3,-8 -6,-13z"/>
   <path class="fil93" d="M1094 2005c-4,-7 4,-13 -6,-24 -7,-7 -19,-6 -25,-15 -10,-18 -25,-16 -25,-16 0,0 -16,-2 -26,16 -5,9 -13,7 -20,15 -10,11 -1,18 -5,25 -5,7 -15,5 -15,18l131 0c0,-13 -4,-12 -9,-19z"/>
   <path class="fil91" d="M1033 2010c-3,-5 3,-9 -4,-17 -5,-5 -14,-4 -18,-11 -7,-12 -18,-11 -18,-11 0,0 -11,-1 -18,11 -4,7 -10,6 -14,11 -8,8 -1,13 -4,18 -4,5 -11,4 -11,13l93 0c0,-9 -2,-8 -6,-14z"/>
   <path class="fil91" d="M1108 2017c-1,-2 1,-4 -2,-8l-8 -5c-4,-6 -9,-5 -9,-5 0,0 -5,-1 -9,5l-6 5c-4,4 -1,6 -2,9 -2,2 -5,1 -5,6l44 0c0,-5 -1,-4 -3,-7z"/>
  </g>
 </g>
</svg>
