<?xml version="1.0" standalone="no"?>
<svg viewBox="0 0 200 200" xmlns="http://www.w3.org/2000/svg">
  <path fill="#FF0066" d="M18.1,-33.8C23.8,-28.1,28.8,-23.9,26.9,-18.5C24.9,-13.1,16,-6.5,24.6,5C33.3,16.6,59.7,33.1,61.5,38.2C63.3,43.3,40.5,37,26.1,38.4C11.8,39.9,5.9,49.2,0.7,47.9C-4.4,46.6,-8.8,34.7,-22.2,32.7C-35.7,30.7,-58.2,38.7,-62.9,34.9C-67.6,31.1,-54.5,15.5,-49.6,2.8C-44.7,-9.8,-47.9,-19.7,-44,-24.8C-40,-30,-28.9,-30.5,-20.4,-34.5C-11.9,-38.6,-6,-46.3,0.1,-46.5C6.2,-46.7,12.5,-39.6,18.1,-33.8Z" transform="translate(100 100)" />
</svg>
