<svg xmlns="http://www.w3.org/2000/svg" xmlns:xlink="http://www.w3.org/1999/xlink" viewBox="0 0 239.35 69.23"><defs><style>.cls-1{font-size:30px;fill:#1b75bb;font-family:FranklinGothic-Heavy, Franklin Gothic Heavy;font-weight:800;}.cls-2,.cls-3,.cls-4,.cls-5,.cls-6,.cls-7{fill-rule:evenodd;}.cls-2{fill:url(#linear-gradient);}.cls-3{fill:url(#linear-gradient-2);}.cls-4{fill:url(#linear-gradient-3);}.cls-5{fill:url(#linear-gradient-4);}.cls-6{fill:url(#linear-gradient-5);}.cls-7{fill:url(#linear-gradient-6);}.cls-8{font-size:25.79px;fill:#0049a0;font-family:CopperplateGothic-Bold, Copperplate Gothic Bold;font-weight:700;}</style><linearGradient id="linear-gradient" y1="14.26" x2="60.96" y2="14.26" gradientUnits="userSpaceOnUse"><stop offset="0" stop-color="#2e368e"/><stop offset="1" stop-color="#72ccdc"/></linearGradient><linearGradient id="linear-gradient-2" x1="35.32" y1="14.8" x2="97.04" y2="14.8" xlink:href="#linear-gradient"/><linearGradient id="linear-gradient-3" x1="41.31" y1="11.55" x2="108.8" y2="11.55" xlink:href="#linear-gradient"/><linearGradient id="linear-gradient-4" x1="-932.53" y1="-428.49" x2="-871.57" y2="-428.49" gradientTransform="translate(-864.53 -373.52) rotate(180)" xlink:href="#linear-gradient"/><linearGradient id="linear-gradient-5" x1="-897.21" y1="-427.95" x2="-835.49" y2="-427.95" gradientTransform="translate(-864.53 -373.52) rotate(180)" xlink:href="#linear-gradient"/><linearGradient id="linear-gradient-6" x1="-891.22" y1="-431.2" x2="-823.72" y2="-431.2" gradientTransform="translate(-864.53 -373.52) rotate(180)" xlink:href="#linear-gradient"/></defs><g id="Layer_2" data-name="Layer 2"><g id="Layer_1-2" data-name="Layer 1"><text class="cls-1" transform="translate(74.68 46.27)">INSURANCE</text><path class="cls-2" d="M61,10.89C48.52-2,26.31-4,12.38,7.86A40.69,40.69,0,0,0,.2,26.49c-.73,2.15.68,2.33,1.92,1.74,2.51-1.2,6.15-7.91,8.05-10.29a25.58,25.58,0,0,1,10-7.78C23,8.9,26.58,7.71,27.27,9.35c.26.62-.23,1.47-2.78,3.68A33.23,33.23,0,0,1,19,16.86c-5,2.91-4.11,6.58,1.69,5.06C25,20.79,29.34,16.8,33.25,14.5,45.07,7.4,53.66,7.4,61,10.89Z"/><path class="cls-3" d="M68,21c-.58-1.19-1.23-2.38-1.94-3.53A39.74,39.74,0,0,0,61,10.89C53.66,7.4,45.07,7.4,33.25,14.5a15,15,0,0,1,2.08-1.05c9.7-4,18.52-.7,26.82,4C64.13,18.58,66.08,19.78,68,21Z"/><path class="cls-4" d="M61,10.89C53.66,7.4,45.07,7.4,33.25,14.5a15,15,0,0,1,2.08-1.05,23.05,23.05,0,0,1,8-1.77c4.75-2.28,9.33-2.49,15-1.33Z"/><path class="cls-5" d="M7,58.34c12.44,12.89,34.65,14.89,48.58,3A40.69,40.69,0,0,0,67.8,42.74c.73-2.15-.68-2.33-1.92-1.74-2.51,1.2-6.15,7.91-8,10.29a25.58,25.58,0,0,1-10,7.78c-2.86,1.26-6.43,2.45-7.12.81-.26-.62.23-1.47,2.78-3.67A32.64,32.64,0,0,1,49,52.37c5-2.91,4.11-6.58-1.69-5-4.31,1.12-8.61,5.12-12.52,7.41C22.93,61.83,14.34,61.83,7,58.34Z"/><path class="cls-6" d="M0,48.25c.58,1.19,1.23,2.38,1.94,3.53A39.74,39.74,0,0,0,7,58.34c7.3,3.49,15.89,3.49,27.71-3.61a16.36,16.36,0,0,1-2.08,1.06c-9.7,4-18.52.69-26.82-4C3.87,50.65,1.92,49.45,0,48.25Z"/><path class="cls-7" d="M7,58.34c7.3,3.49,15.89,3.49,27.71-3.61a16.36,16.36,0,0,1-2.08,1.06,23.26,23.26,0,0,1-8,1.76c-4.75,2.28-9.33,2.49-15,1.33Z"/><text class="cls-8" transform="translate(2.76 45.42)">LMV</text></g></g></svg>