<?xml version="1.0" encoding="iso-8859-1"?>
<!-- Generator: Adobe Illustrator 19.0.0, SVG Export Plug-In . SVG Version: 6.00 Build 0)  -->
<svg version="1.1" id="Layer_1" xmlns="http://www.w3.org/2000/svg" xmlns:xlink="http://www.w3.org/1999/xlink" x="0px" y="0px"
	 viewBox="0 0 512 512" style="enable-background:new 0 0 512 512;" xml:space="preserve">
<rect x="414.333" y="182.857" style="fill:#E2804F;" width="96.131" height="329.143"/>
<polyline style="fill:#F2BF7E;" points="478.076,182.857 417.994,182.857 418.452,512 352.899,512 353.923,287.347 284.77,287.347 
	284.77,7.314 478.076,7.314 478.076,182.857 "/>
<rect x="229.606" y="287.754" style="fill:#D4E4AC;" width="120.236" height="224.246"/>
<polygon style="fill:#E2804F;" points="230.436,512 230.436,63.739 70.566,63.739 70.566,207.935 137.683,207.935 138.153,512 "/>
<polyline style="fill:#F2BF7E;" points="9.541,512 9.541,207.663 137.683,207.663 137.683,512 "/>
<polygon points="145.692,512 129.674,512 129.674,215.671 17.55,215.671 17.55,512 1.532,512 1.532,199.654 145.692,199.654 "/>
<rect x="29.815" y="230.922" width="15.673" height="24.033"/>
<rect x="62.203" y="230.922" style="fill:#FFFFFF;" width="15.673" height="24.033"/>
<rect x="93.55" y="230.922" width="15.673" height="24.033"/>
<rect x="29.815" y="280.033" style="fill:#FFFFFF;" width="15.673" height="22.988"/>
<rect x="62.203" y="280.033" width="15.673" height="22.988"/>
<rect x="93.55" y="280.033" style="fill:#FFFFFF;" width="15.673" height="22.988"/>
<rect x="29.815" y="328.098" width="15.673" height="24.033"/>
<rect x="62.203" y="328.098" style="fill:#FFFFFF;" width="15.673" height="24.033"/>
<rect x="93.55" y="328.098" width="15.673" height="24.033"/>
<rect x="29.815" y="376.163" width="15.673" height="22.988"/>
<rect x="62.203" y="376.163" style="fill:#FFFFFF;" width="15.673" height="22.988"/>
<rect x="93.55" y="376.163" width="15.673" height="22.988"/>
<rect x="29.815" y="424.229" width="15.673" height="24.033"/>
<rect x="62.203" y="424.229" width="15.673" height="24.033"/>
<rect x="93.55" y="424.229" style="fill:#FFFFFF;" width="15.673" height="24.033"/>
<rect x="29.815" y="471.249" width="15.673" height="24.033"/>
<rect x="62.203" y="471.249" width="15.673" height="24.033"/>
<rect x="93.55" y="471.249" style="fill:#FFFFFF;" width="15.673" height="24.033"/>
<polygon points="237.75,512 222.076,512 222.076,72.098 77.88,72.098 77.88,191.216 62.207,191.216 62.207,56.424 237.75,56.424 "/>
<polygon points="357.913,512 342.24,512 342.24,294.661 246.109,294.661 246.109,278.988 357.913,278.988 "/>
<polygon points="293.129,272.718 277.456,272.718 277.456,0 486.436,0 486.436,168.229 470.762,168.229 470.762,15.673 
	293.129,15.673 "/>
<polygon points="421.652,512 405.978,512 405.978,175.543 510.468,175.543 510.468,191.216 421.652,191.216 "/>
<rect x="93.55" y="96.131" width="15.673" height="22.988"/>
<rect x="125.942" y="96.131" style="fill:#FFFFFF;" width="15.673" height="22.988"/>
<rect x="158.333" y="96.131" width="15.673" height="22.988"/>
<rect x="190.725" y="96.131" width="15.673" height="22.988"/>
<rect x="93.55" y="144.196" width="15.673" height="24.033"/>
<rect x="125.942" y="144.196" width="15.673" height="24.033"/>
<rect x="158.333" y="144.196" style="fill:#FFFFFF;" width="15.673" height="24.033"/>
<rect x="190.725" y="144.196" width="15.673" height="24.033"/>
<rect x="158.333" y="191.216" width="15.673" height="25.078"/>
<rect x="190.725" y="191.216" style="fill:#FFFFFF;" width="15.673" height="25.078"/>
<rect x="158.333" y="240.327" width="15.673" height="24.033"/>
<rect x="190.725" y="240.327" width="15.673" height="24.033"/>
<rect x="158.333" y="287.347" style="fill:#FFFFFF;" width="15.673" height="24.033"/>
<rect x="190.725" y="287.347" width="15.673" height="24.033"/>
<rect x="158.333" y="336.457" style="fill:#FFFFFF;" width="15.673" height="22.988"/>
<rect x="190.725" y="336.457" width="15.673" height="22.988"/>
<rect x="158.333" y="384.522" width="15.673" height="22.988"/>
<rect x="190.725" y="384.522" width="15.673" height="22.988"/>
<rect x="158.333" y="432.588" width="15.673" height="24.033"/>
<g>
	<rect x="190.725" y="432.588" style="fill:#FFFFFF;" width="15.673" height="24.033"/>
	<rect x="158.333" y="479.608" style="fill:#FFFFFF;" width="15.673" height="25.078"/>
</g>
<rect x="190.725" y="479.608" width="15.673" height="25.078"/>
<rect x="309.844" y="39.706" width="15.673" height="24.033"/>
<g>
	<rect x="342.235" y="39.706" style="fill:#FFFFFF;" width="15.673" height="24.033"/>
	<rect x="374.627" y="39.706" style="fill:#FFFFFF;" width="15.673" height="24.033"/>
	<rect x="405.974" y="39.706" style="fill:#FFFFFF;" width="15.673" height="24.033"/>
</g>
<rect x="438.366" y="39.706" width="15.673" height="24.033"/>
<rect x="309.844" y="86.727" width="15.673" height="25.078"/>
<rect x="342.235" y="86.727" width="15.673" height="25.078"/>
<rect x="374.627" y="86.727" width="15.673" height="25.078"/>
<rect x="405.974" y="86.727" width="15.673" height="25.078"/>
<rect x="438.366" y="86.727" style="fill:#FFFFFF;" width="15.673" height="25.078"/>
<rect x="309.844" y="134.792" width="15.673" height="25.078"/>
<rect x="342.235" y="134.792" width="15.673" height="25.078"/>
<g>
	<rect x="374.627" y="134.792" style="fill:#FFFFFF;" width="15.673" height="25.078"/>
	<rect x="405.974" y="134.792" style="fill:#FFFFFF;" width="15.673" height="25.078"/>
</g>
<rect x="438.366" y="134.792" width="15.673" height="25.078"/>
<rect x="309.844" y="182.857" width="15.673" height="25.078"/>
<rect x="342.235" y="182.857" style="fill:#FFFFFF;" width="15.673" height="25.078"/>
<rect x="374.627" y="182.857" width="15.673" height="25.078"/>
<rect x="309.844" y="230.922" width="15.673" height="24.033"/>
<rect x="342.235" y="230.922" style="fill:#FFFFFF;" width="15.673" height="24.033"/>
<rect x="374.627" y="230.922" width="15.673" height="24.033"/>
<rect x="374.627" y="280.033" width="15.673" height="22.988"/>
<rect x="374.627" y="328.098" style="fill:#FFFFFF;" width="15.673" height="24.033"/>
<rect x="374.627" y="376.163" width="15.673" height="22.988"/>
<rect x="374.627" y="424.229" style="fill:#FFFFFF;" width="15.673" height="24.033"/>
<rect x="374.627" y="471.249" width="15.673" height="24.033"/>
<rect x="446.725" y="223.608" width="15.673" height="24.033"/>
<rect x="485.386" y="223.608" width="15.673" height="24.033"/>
<rect x="446.725" y="272.718" width="15.673" height="21.943"/>
<rect x="485.386" y="272.718" width="15.673" height="21.943"/>
<rect x="446.725" y="319.739" style="fill:#FFFFFF;" width="15.673" height="24.033"/>
<rect x="485.386" y="319.739" width="15.673" height="24.033"/>
<rect x="446.725" y="366.759" width="15.673" height="24.033"/>
<rect x="485.386" y="366.759" style="fill:#FFFFFF;" width="15.673" height="24.033"/>
<rect x="446.725" y="415.869" width="15.673" height="24.033"/>
<rect x="485.386" y="415.869" width="15.673" height="24.033"/>
<rect x="446.725" y="462.89" width="15.673" height="26.122"/>
<rect x="485.386" y="462.89" width="15.673" height="26.122"/>
<rect x="245.06" y="319.739" width="15.673" height="24.033"/>
<rect x="277.452" y="319.739" style="fill:#FFFFFF;" width="15.673" height="24.033"/>
<rect x="309.844" y="319.739" width="15.673" height="24.033"/>
<rect x="245.06" y="366.759" width="15.673" height="24.033"/>
<rect x="277.452" y="366.759" width="15.673" height="24.033"/>
<rect x="309.844" y="366.759" style="fill:#FFFFFF;" width="15.673" height="24.033"/>
<rect x="245.06" y="415.869" width="15.673" height="24.033"/>
<rect x="277.452" y="415.869" width="15.673" height="24.033"/>
<rect x="309.844" y="415.869" width="15.673" height="24.033"/>
<rect x="245.06" y="462.89" style="fill:#FFFFFF;" width="15.673" height="26.122"/>
<rect x="277.452" y="462.89" width="15.673" height="26.122"/>
<rect x="309.844" y="462.89" width="15.673" height="26.122"/>
<g>
</g>
<g>
</g>
<g>
</g>
<g>
</g>
<g>
</g>
<g>
</g>
<g>
</g>
<g>
</g>
<g>
</g>
<g>
</g>
<g>
</g>
<g>
</g>
<g>
</g>
<g>
</g>
<g>
</g>
</svg>
