<?xml version="1.0" encoding="UTF-8"?>
<!DOCTYPE svg PUBLIC "-//W3C//DTD SVG 1.1//EN" "http://www.w3.org/Graphics/SVG/1.1/DTD/svg11.dtd">
<!-- Creator: CorelDRAW X8 -->
<svg xmlns="http://www.w3.org/2000/svg" xml:space="preserve" width="13.6209mm" height="9.2146mm" version="1.1" style="shape-rendering:geometricPrecision; text-rendering:geometricPrecision; image-rendering:optimizeQuality; fill-rule:evenodd; clip-rule:evenodd"
viewBox="0 0 128 86"
 xmlns:xlink="http://www.w3.org/1999/xlink">
 <defs>
  <style type="text/css">
   <![CDATA[
    .fil2 {fill:#0090AF;fill-rule:nonzero}
    .fil1 {fill:#EB2138;fill-rule:nonzero}
    .fil0 {fill:#FFCA00;fill-rule:nonzero}
   ]]>
  </style>
 </defs>
 <g id="Layer_x0020_1">
  <metadata id="CorelCorpID_0Corel-Layer"/>
  <g id="_763378112">
   <polygon class="fil0" points="36,36 41,40 36,45 31,40 "/>
   <polygon class="fil0" points="114,57 119,62 114,67 109,62 "/>
   <polygon class="fil0" points="19,76 24,81 19,86 14,81 "/>
   <polygon class="fil1" points="3,46 6,49 3,52 0,49 "/>
   <polygon class="fil1" points="80,0 83,3 80,6 77,3 "/>
   <polygon class="fil1" points="126,18 128,20 126,21 125,20 "/>
   <polygon class="fil1" points="53,35 56,39 53,42 50,39 "/>
   <polygon class="fil2" points="21,31 23,33 21,35 20,33 "/>
   <polygon class="fil2" points="76,19 77,21 76,23 74,21 "/>
   <polygon class="fil1" points="76,52 79,55 76,58 73,55 "/>
  </g>
 </g>
</svg>
