<?xml version="1.0" encoding="utf-8"?>
<!-- Generator: Adobe Illustrator 16.0.0, SVG Export Plug-In . SVG Version: 6.00 Build 0)  -->
<!DOCTYPE svg PUBLIC "-//W3C//DTD SVG 1.1//EN" "http://www.w3.org/Graphics/SVG/1.1/DTD/svg11.dtd">
<svg version="1.1" id="Layer_1" xmlns="http://www.w3.org/2000/svg" xmlns:xlink="http://www.w3.org/1999/xlink" x="0px" y="0px"
	 width="360px" height="360px" viewBox="0 0 360 360" enable-background="new 0 0 360 360" xml:space="preserve">
<rect x="-520" y="159.102539" fill="#4D4D4D" width="1600" height="42.897461"/>
<linearGradient id="SVGID_1_" gradientUnits="userSpaceOnUse" x1="179.999512" y1="166.720215" x2="179.999512" y2="201.923538">
	<stop  offset="0" style="stop-color:#808285"/>
	<stop  offset="0.293277" style="stop-color:#6E7072"/>
	<stop  offset="0.660725" style="stop-color:#5E5F61"/>
	<stop  offset="0.933333" style="stop-color:#58595B"/>
</linearGradient>
<rect x="-520" y="167.52832" fill="url(#SVGID_1_)" width="1400" height="34.47168"/>
<g>
	<rect x="-518" y="179.885742" fill="#808080" width="25.47168" height="1.616211"/>
	<rect x="-483.114746" y="179.885742" fill="#808080" width="25.472168" height="1.616211"/>
	<rect x="-448.229492" y="179.885742" fill="#808080" width="25.472168" height="1.616211"/>
	<rect x="-413.34375" y="179.885742" fill="#808080" width="25.47168" height="1.616211"/>
	<rect x="-378.458496" y="179.885742" fill="#808080" width="25.47168" height="1.616211"/>
	<rect x="-343.573242" y="179.885742" fill="#808080" width="25.47168" height="1.616211"/>
	<rect x="-308.687988" y="179.885742" fill="#808080" width="25.47168" height="1.616211"/>
	<rect x="-273.802734" y="179.885742" fill="#808080" width="25.47168" height="1.616211"/>
	<rect x="-238.91748" y="179.885742" fill="#808080" width="25.472168" height="1.616211"/>
	<rect x="-204.032227" y="179.885742" fill="#808080" width="25.472168" height="1.616211"/>
	<rect x="-169.146484" y="179.885742" fill="#808080" width="25.47168" height="1.616211"/>
	<rect x="-134.26123" y="179.885742" fill="#808080" width="25.47168" height="1.616211"/>
	<rect x="-99.375977" y="179.885742" fill="#808080" width="25.47168" height="1.616211"/>
	<rect x="-64.490723" y="179.885742" fill="#808080" width="25.472168" height="1.616211"/>
	<rect x="-29.605469" y="179.885742" fill="#808080" width="25.472168" height="1.616211"/>
	<rect x="5.280273" y="179.885742" fill="#808080" width="25.47168" height="1.616211"/>
	<rect x="40.165527" y="179.885742" fill="#808080" width="25.47168" height="1.616211"/>
	<rect x="75.050781" y="179.885742" fill="#808080" width="25.47168" height="1.616211"/>
	<rect x="109.936035" y="179.885742" fill="#808080" width="25.47168" height="1.616211"/>
	<rect x="144.821289" y="179.885742" fill="#808080" width="25.47168" height="1.616211"/>
	<rect x="179.707031" y="179.885742" fill="#808080" width="25.47168" height="1.616211"/>
	<rect x="214.591797" y="179.885742" fill="#808080" width="25.47168" height="1.616211"/>
	<rect x="249.477539" y="179.885742" fill="#808080" width="25.47168" height="1.616211"/>
	<rect x="284.363281" y="179.885742" fill="#808080" width="25.47168" height="1.616211"/>
	<rect x="319.248047" y="179.885742" fill="#808080" width="25.47168" height="1.616211"/>
	<rect x="354.133789" y="179.885742" fill="#808080" width="25.47168" height="1.616211"/>
	<rect x="389.018555" y="179.885742" fill="#808080" width="25.47168" height="1.616211"/>
	<rect x="423.904297" y="179.885742" fill="#808080" width="25.47168" height="1.616211"/>
	<rect x="458.789063" y="179.885742" fill="#808080" width="25.472656" height="1.616211"/>
	<rect x="493.674805" y="179.885742" fill="#808080" width="25.47168" height="1.616211"/>
	<rect x="528.560547" y="179.885742" fill="#808080" width="25.47168" height="1.616211"/>
	<rect x="563.445313" y="179.885742" fill="#808080" width="25.47168" height="1.616211"/>
	<rect x="598.331055" y="179.885742" fill="#808080" width="25.47168" height="1.616211"/>
	<rect x="633.21582" y="179.885742" fill="#808080" width="25.472656" height="1.616211"/>
	<rect x="668.101563" y="179.885742" fill="#808080" width="25.47168" height="1.616211"/>
	<rect x="702.986328" y="179.885742" fill="#808080" width="25.472656" height="1.616211"/>
	<rect x="737.87207" y="179.885742" fill="#808080" width="25.47168" height="1.616211"/>
	<rect x="772.757813" y="179.885742" fill="#808080" width="25.47168" height="1.616211"/>
	<rect x="807.642578" y="179.885742" fill="#808080" width="25.47168" height="1.616211"/>
	<rect x="842.52832" y="179.885742" fill="#808080" width="25.47168" height="1.616211"/>
</g>
</svg>
