<?xml version="1.0" encoding="UTF-8"?>
<!DOCTYPE svg PUBLIC "-//W3C//DTD SVG 1.1//EN" "http://www.w3.org/Graphics/SVG/1.1/DTD/svg11.dtd">
<!-- Creator: CorelDRAW X8 -->
<svg xmlns="http://www.w3.org/2000/svg" xml:space="preserve" width="14.91mm" height="14.91mm" version="1.1" style="shape-rendering:geometricPrecision; text-rendering:geometricPrecision; image-rendering:optimizeQuality; fill-rule:evenodd; clip-rule:evenodd"
viewBox="0 0 91 91"
 xmlns:xlink="http://www.w3.org/1999/xlink">
 <defs>
  <style type="text/css">
   <![CDATA[
    .str0 {stroke:#FEFEFE;stroke-width:0.462946}
    .fil0 {fill:#B2B3B3}
    .fil1 {fill:gray;fill-rule:nonzero}
    .fil2 {fill:white;fill-rule:nonzero}
   ]]>
  </style>
 </defs>
 <g id="Layer_x0020_1">
  <metadata id="CorelCorpID_0Corel-Layer"/>
  <rect class="fil0" width="90.5841" height="90.5841" rx="33" ry="33"/>
  <path class="fil1 str0" d="M73 18l0 -1 -2 0c-2,-1 -4,-4 -5,-5l-1 -1 -40 0 0 1c-1,1 -3,4 -6,5l-1 0 0 1c-15,49 26,61 27,61l0 0 1 0c0,0 41,-12 27,-61zm-28 58l0 0c-5,-2 -36,-14 -24,-56 3,-1 5,-4 6,-6l36 0c1,2 3,5 7,6 12,42 -20,54 -25,56z"/>
  <path class="fil2" d="M54 36l-1 0c0,-6 -3,-9 -8,-9 -4,0 -8,3 -8,9l-1 0c-2,0 -2,1 -2,2l0 12c0,2 0,4 2,4l18 0c2,0 3,-2 3,-4l0 -12c0,-1 -1,-2 -3,-2zm-7 14l0 0 -4 0 1 -6c-1,0 -1,-1 -1,-2 0,-2 1,-3 2,-3 2,0 3,1 3,3 0,1 -1,2 -1,2l0 6zm-7 -14l0 0c0,-5 3,-6 5,-6 3,0 6,1 6,6l-11 0z"/>
 </g>
</svg>
