<?xml version="1.0" encoding="utf-8"?>
<!-- Generator: Adobe Illustrator 16.0.0, SVG Export Plug-In . SVG Version: 6.00 Build 0)  -->
<!DOCTYPE svg PUBLIC "-//W3C//DTD SVG 1.1//EN" "http://www.w3.org/Graphics/SVG/1.1/DTD/svg11.dtd">
<svg version="1.1" id="Layer_1" xmlns="http://www.w3.org/2000/svg" xmlns:xlink="http://www.w3.org/1999/xlink" x="0px" y="0px"
	 width="360px" height="360px" viewBox="0 0 360 360" enable-background="new 0 0 360 360" xml:space="preserve">
<g>
	<g opacity="0.8">
		<path fill="#F5F5F5" d="M91.384766,146.161133c10.116211,0,19.918945-1.745117,29.283203-5.219727
			c11.041016-4.099609,21.49707-10.602539,31.074219-19.330078c16.292969-14.84668,24.503906-31.216797,24.584961-31.380859
			l-0.490234-0.125977c-0.081055,0.163086-8.268555,16.482422-24.510742,31.280273
			c-14.966797,13.634766-40.033203,28.733398-74.461914,23.223633l-0.113281,0.367188
			C81.69043,145.765625,86.573242,146.161133,91.384766,146.161133z"/>
		<path fill="#F5F5F5" d="M75.887695,180.555664c27.113281,4.748047,51.163086-4.783203,67.388672-14.40332
			c20.211914-11.983398,32.996094-26.682617,33.12207-26.829102l0.441406,0.199219
			c-0.126953,0.146484-12.949219,14.892578-33.222656,26.915039c-11.916016,7.06543-24.040039,11.825195-36.03418,14.146484
			c-10.168945,1.964844-20.262695,2.171875-30.149414,0.62793c-0.515625-0.082031-1.03125-0.168945-1.545898-0.258789V180.555664z"
			/>
		<path fill="#F5F5F5" d="M76.927734,217.992188c21.071289,4.179688,42.300781-0.322266,58.194336-5.835938
			c23.572266-8.176758,40.823242-20.263672,40.995117-20.385742l0.363281,0.269531
			c-0.170898,0.121094-17.474609,12.248047-41.121094,20.451172c-13.898438,4.823242-27.241211,7.369141-39.655273,7.566406
			c-6.518555,0.104492-12.786133-0.445313-18.776367-1.634766V217.992188z"/>
	</g>
	<g opacity="0.6">
		<path fill="#F5F5F5" d="M172.277344,145.408203c13.040039,0,25.676758-1.744141,37.746094-5.219727
			c14.233398-4.099609,27.708984-10.601563,40.055664-19.330078c21-14.845703,31.584961-31.216797,31.689453-31.379883
			l-0.631836-0.126953c-0.105469,0.163086-10.658203,16.482422-31.595703,31.28125
			c-19.290039,13.635742-51.600586,28.732422-95.980469,23.222656l-0.146484,0.367188
			C159.78125,145.013672,166.076172,145.408203,172.277344,145.408203z"/>
		<path fill="#F5F5F5" d="M152.300781,179.803711c34.950195,4.75,65.950195-4.783203,86.865234-14.40332
			c26.051758-11.983398,42.529297-26.683594,42.694336-26.830078l0.570313,0.199219
			c-0.164063,0.147461-16.692383,14.892578-42.824219,26.916016c-15.361328,7.06543-30.990234,11.824219-46.450195,14.144531
			c-13.108398,1.966797-26.117188,2.175781-38.862305,0.629883c-0.666016-0.082031-1.329102-0.169922-1.993164-0.259766V179.803711z
			"/>
		<path fill="#F5F5F5" d="M153.644531,217.238281c27.158203,4.182617,54.524414-0.321289,75.010742-5.833984
			c30.384766-8.177734,52.620117-20.265625,52.841797-20.386719l0.470703,0.270508
			c-0.222656,0.120117-22.525391,12.246094-53.006836,20.452148c-17.916992,4.822266-35.114258,7.367188-51.115234,7.56543
			c-8.405273,0.103516-16.482422-0.444336-24.201172-1.635742V217.238281z"/>
	</g>
	<g>
		<path fill="none" stroke="#F5F5F5" stroke-width="0.442704" stroke-miterlimit="10" d="M107.098633,123.525391l0.006836-0.081055
			h16.089844l18.793945,175.541016l0.009766,0.094727H88.302734L107.098633,123.525391z M122.96875,123.621094h-15.635742
			L88.566406,298.904297h53.168945L122.96875,123.621094z"/>
		<path fill="none" stroke="#F5F5F5" stroke-width="0.442704" stroke-miterlimit="10" d="M115.151367,121.105469
			l39.464844,22.219727H75.685547L115.151367,121.105469z M115.151367,121.329102l-38.755859,21.819336h77.511719
			L115.151367,121.329102z"/>
		<path fill="none" stroke="#F5F5F5" stroke-width="0.442704" stroke-miterlimit="10" d="M115.151367,156.980469l39.464844,22.21875
			H75.685547L115.151367,156.980469z M115.151367,157.203125l-38.755859,21.821289h77.511719L115.151367,157.203125z"/>
		<path fill="none" stroke="#F5F5F5" stroke-width="0.442704" stroke-miterlimit="10" d="M115.151367,194.589844
			l39.464844,22.220703H75.685547L115.151367,194.589844z M115.151367,194.81543l-38.755859,21.820313h77.511719
			L115.151367,194.81543z"/>
		<path fill="none" stroke="#F5F5F5" stroke-width="0.442704" stroke-miterlimit="10" d="M115.151367,246.908203
			l22.980469,12.935547H92.170898L115.151367,246.908203z M115.151367,247.130859l-22.270508,12.538086h44.541016
			L115.151367,247.130859z"/>
		<path fill="none" stroke="#F5F5F5" stroke-width="0.442704" stroke-miterlimit="10" d="M115.151367,259.550781l23.68457,13.334961
			H91.46582L115.151367,259.550781z M115.151367,259.790039l-22.929688,12.90625h45.858398L115.151367,259.790039z"/>
		<path fill="none" stroke="#F5F5F5" stroke-width="0.442704" stroke-miterlimit="10" d="M106,135.34375l9.151367-6.607422
			l9.149414,6.607422l-9.149414,6.605469L106,135.34375z M115.151367,128.986328l-8.805664,6.357422l8.805664,6.356445
			l8.803711-6.356445L115.151367,128.986328z"/>
		<path fill="none" stroke="#F5F5F5" stroke-width="0.442704" stroke-miterlimit="10" d="M104.414063,149.523438l10.737305-7.751953
			l10.735352,7.751953l-10.735352,7.750977L104.414063,149.523438z M115.151367,142.020508l-10.391602,7.50293l10.391602,7.501953
			l10.389648-7.501953L115.151367,142.020508z"/>
		<path fill="none" stroke="#F5F5F5" stroke-width="0.442704" stroke-miterlimit="10" d="M102.768555,165.685547l12.382813-8.941406
			l12.381836,8.941406L115.151367,174.625L102.768555,165.685547z M115.151367,156.993164l-12.038086,8.692383l12.038086,8.688477
			l12.037109-8.688477L115.151367,156.993164z"/>
		<path fill="none" stroke="#F5F5F5" stroke-width="0.442704" stroke-miterlimit="10" d="M100.693359,184.798828
			l14.458008-10.439453l14.456055,10.439453l-14.456055,10.4375L100.693359,184.798828z M115.151367,174.609375
			l-14.112305,10.189453l14.112305,10.189453l14.111328-10.189453L115.151367,174.609375z"/>
		<path fill="none" stroke="#F5F5F5" stroke-width="0.442704" stroke-miterlimit="10" d="M98.37793,206.904297l16.773438-12.110352
			l16.772461,12.110352l-16.772461,12.109375L98.37793,206.904297z M115.151367,195.041992l-16.427734,11.862305
			l16.427734,11.860352l16.426758-11.860352L115.151367,195.041992z"/>
		<path fill="none" stroke="#F5F5F5" stroke-width="0.442704" stroke-miterlimit="10" d="M95.451172,232.974609l19.700195-14.222656
			l19.698242,14.222656l-19.698242,14.223633L95.451172,232.974609z M115.151367,219l-19.354492,13.974609l19.354492,13.973633
			l19.354492-13.973633L115.151367,219z"/>
		<path fill="none" stroke="#F5F5F5" stroke-width="0.442704" stroke-miterlimit="10" d="M104.074219,121.193359l0.208984-0.152344
			h21.735352l0.209961,0.152344l-11.077148,7.996094L104.074219,121.193359z M104.455078,121.216797l10.696289,7.723633
			l10.696289-7.723633H104.455078z"/>
		
			<rect x="114.876953" y="121.129883" fill="none" stroke="#F5F5F5" stroke-width="0.442704" stroke-miterlimit="10" width="0.547852" height="177.862305"/>
		<g>
			<rect x="152.353516" y="143.324219" fill="#F5F5F5" width="2.28125" height="2.935547"/>
			<rect x="75.666992" y="143.324219" fill="#F5F5F5" width="2.282227" height="2.935547"/>
		</g>
		<g>
			<rect x="152.353516" y="179.140625" fill="#F5F5F5" width="2.28125" height="2.935547"/>
			<rect x="75.666992" y="179.140625" fill="#F5F5F5" width="2.282227" height="2.935547"/>
		</g>
		<g>
			<rect x="152.353516" y="216.717773" fill="#F5F5F5" width="2.28125" height="2.935547"/>
			<rect x="75.666992" y="216.717773" fill="#F5F5F5" width="2.282227" height="2.935547"/>
		</g>
	</g>
	<g>
		<path fill="none" stroke="#F5F5F5" stroke-width="0.442704" stroke-miterlimit="10" d="M218.083984,60.679688l0.011719-0.114258
			h22.30957l26.060547,243.416016l0.013672,0.129883h-74.458008L218.083984,60.679688z M240.091797,60.810547H218.40918
			l-26.023438,243.056641h73.728516L240.091797,60.810547z"/>
		<path fill="none" stroke="#F5F5F5" stroke-width="0.442704" stroke-miterlimit="10" d="M229.25,57.323242l54.724609,30.80957
			H174.526367L229.25,57.323242z M229.25,57.631836l-53.741211,30.256836h107.482422L229.25,57.631836z"/>
		<path fill="none" stroke="#F5F5F5" stroke-width="0.442704" stroke-miterlimit="10" d="M229.25,107.068359l54.724609,30.810547
			H174.526367L229.25,107.068359z M229.25,107.378906l-53.741211,30.257813h107.482422L229.25,107.378906z"/>
		<path fill="none" stroke="#F5F5F5" stroke-width="0.442704" stroke-miterlimit="10" d="M229.25,159.220703l54.724609,30.8125
			H174.526367L229.25,159.220703z M229.25,159.532227l-53.741211,30.255859h107.482422L229.25,159.532227z"/>
		<path fill="none" stroke="#F5F5F5" stroke-width="0.442704" stroke-miterlimit="10" d="M229.25,231.766602l31.866211,17.94043
			h-63.731445L229.25,231.766602z M229.25,232.077148l-30.878906,17.384766h61.759766L229.25,232.077148z"/>
		<path fill="none" stroke="#F5F5F5" stroke-width="0.442704" stroke-miterlimit="10" d="M229.25,249.296875l32.84375,18.492188
			h-65.686523L229.25,249.296875z M229.25,249.62793l-31.794922,17.900391h63.59082L229.25,249.62793z"/>
		<path fill="none" stroke="#F5F5F5" stroke-width="0.442704" stroke-miterlimit="10" d="M216.563477,77.06543L229.25,67.904297
			l12.688477,9.161133L229.25,86.226563L216.563477,77.06543z M229.25,68.250977l-12.208984,8.814453L229.25,85.880859
			l12.208984-8.81543L229.25,68.250977z"/>
		<path fill="none" stroke="#F5F5F5" stroke-width="0.442704" stroke-miterlimit="10" d="M214.364258,96.727539L229.25,85.979492
			l14.886719,10.748047L229.25,107.476563L214.364258,96.727539z M229.25,86.324219l-14.408203,10.40332L229.25,107.130859
			l14.408203-10.40332L229.25,86.324219z"/>
		<path fill="none" stroke="#F5F5F5" stroke-width="0.442704" stroke-miterlimit="10" d="M212.080078,119.138672L229.25,106.741211
			l17.170898,12.397461L229.25,131.535156L212.080078,119.138672z M229.25,107.086914l-16.691406,12.051758L229.25,131.189453
			l16.691406-12.050781L229.25,107.086914z"/>
		<path fill="none" stroke="#F5F5F5" stroke-width="0.442704" stroke-miterlimit="10" d="M209.203125,145.643555L229.25,131.168945
			l20.047852,14.474609L229.25,160.118164L209.203125,145.643555z M229.25,131.514648l-19.569336,14.128906L229.25,159.771484
			l19.568359-14.12793L229.25,131.514648z"/>
		<path fill="none" stroke="#F5F5F5" stroke-width="0.442704" stroke-miterlimit="10" d="M205.992188,176.295898L229.25,159.50293
			l23.257813,16.792969L229.25,193.087891L205.992188,176.295898z M229.25,159.848633l-22.779297,16.447266L229.25,192.741211
			l22.779297-16.445313L229.25,159.848633z"/>
		<path fill="none" stroke="#F5F5F5" stroke-width="0.442704" stroke-miterlimit="10" d="M201.935547,212.447266L229.25,192.723633
			l27.31543,19.723633L229.25,232.166992L201.935547,212.447266z M229.25,193.068359l-26.836914,19.378906L229.25,231.823242
			l26.836914-19.375977L229.25,193.068359z"/>
		<path fill="none" stroke="#F5F5F5" stroke-width="0.442704" stroke-miterlimit="10" d="M213.891602,57.443359l0.289063-0.209961
			h30.137695l0.291016,0.209961L229.25,68.533203L213.891602,57.443359z M214.417969,57.478516L229.25,68.1875l14.833008-10.708984
			H214.417969z"/>
		
			<rect x="228.870117" y="57.355469" fill="none" stroke="#F5F5F5" stroke-width="0.442704" stroke-miterlimit="10" width="0.760742" height="246.633789"/>
		<g>
			<rect x="280.835938" y="88.131836" fill="#F5F5F5" width="3.164063" height="4.070313"/>
			<rect x="174.500977" y="88.131836" fill="#F5F5F5" width="3.162109" height="4.070313"/>
		</g>
		<g>
			<rect x="280.835938" y="137.797852" fill="#F5F5F5" width="3.164063" height="4.070313"/>
			<rect x="174.500977" y="137.797852" fill="#F5F5F5" width="3.162109" height="4.070313"/>
		</g>
		<g>
			<rect x="280.835938" y="189.90625" fill="#F5F5F5" width="3.164063" height="4.068359"/>
			<rect x="174.500977" y="189.90625" fill="#F5F5F5" width="3.162109" height="4.068359"/>
		</g>
	</g>
</g>
</svg>
