<?xml version="1.0" encoding="UTF-8"?>
<!DOCTYPE svg PUBLIC "-//W3C//DTD SVG 1.1//EN" "http://www.w3.org/Graphics/SVG/1.1/DTD/svg11.dtd">
<!-- Creator: CorelDRAW X8 -->
<svg xmlns="http://www.w3.org/2000/svg" xml:space="preserve" width="14.91mm" height="14.91mm" version="1.1" style="shape-rendering:geometricPrecision; text-rendering:geometricPrecision; image-rendering:optimizeQuality; fill-rule:evenodd; clip-rule:evenodd"
viewBox="0 0 91 91"
 xmlns:xlink="http://www.w3.org/1999/xlink">
 <defs>
  <style type="text/css">
   <![CDATA[
    .fil1 {fill:#FEFEFE}
    .fil0 {fill:#B2B3B3}
   ]]>
  </style>
 </defs>
 <g id="Layer_x0020_1">
  <metadata id="CorelCorpID_0Corel-Layer"/>
  <rect class="fil0" width="90.5841" height="90.5841" rx="33" ry="33"/>
  <g id="_935109296">
   <path class="fil1" d="M35 58l0 13c0,2 -1,4 1,4 1,0 1,-1 1,-1l0 -10c0,-2 -1,-4 0,-5 0,-1 0,-1 -1,-2 -1,-1 -2,-1 -8,-6 -9,-10 -7,-27 4,-33 0,3 0,4 0,6l0 12c0,2 1,3 3,4l4 3c6,4 7,4 11,2 2,-1 10,-6 10,-8 0,-3 0,-17 0,-19 1,1 1,1 2,2 10,7 11,22 4,30 -1,1 -2,2 -2,3 -3,2 -4,3 -7,4 -1,0 -1,1 -1,1l0 16c0,0 0,0 1,0 1,0 1,-2 1,-3l0 -12c0,-1 1,-1 1,-1 7,-4 13,-11 13,-18 0,-4 0,-8 -1,-10 -1,-3 -2,-6 -4,-8 -1,-2 -5,-5 -8,-6 0,0 -1,0 -1,1 0,4 0,8 0,11l0 8c0,1 0,1 0,2 -1,0 -1,0 -1,0 -1,0 -1,0 -1,1 -2,1 -8,5 -10,5 -2,0 -6,-2 -7,-3 -1,-1 -2,-2 -3,-2 -3,-2 -2,-2 -2,-7l0 -8c0,-1 0,-2 0,-4 0,-1 0,-2 0,-4l-1 0c-2,0 -5,3 -6,4 -1,1 -1,1 -1,1 -1,1 -2,2 -2,3 -2,2 -3,6 -4,9 0,7 2,13 5,17 4,5 6,5 10,8z"/>
   <path class="fil1" d="M35 23c0,2 -1,3 1,3 1,0 1,-1 1,-2 1,-1 8,-5 9,-5 0,0 7,4 9,5 0,2 0,2 0,4 0,2 0,4 0,6 -1,1 -8,5 -9,5 -1,0 -9,-5 -9,-5 0,-1 0,-5 0,-6 -1,-1 -2,0 -2,0 0,1 0,2 0,3 0,3 0,4 2,5l8 5c1,0 2,0 4,-2l6 -3c1,-1 2,-1 2,-2 0,-2 0,-10 -1,-11 0,-1 -3,-2 -4,-3 -2,-1 -3,-2 -6,-3 -1,-1 -1,0 -2,1l-3 1c-1,1 -2,1 -3,2 -1,1 -2,1 -3,2z"/>
   <path class="fil1" d="M40 29c0,3 3,5 5,5 2,0 3,1 4,-1 4,-4 1,-6 0,-3 -1,4 -7,4 -7,-1 0,-2 1,-3 3,-3 4,0 3,1 4,2 2,0 1,-4 -4,-4 -2,0 -5,3 -5,5z"/>
   <path class="fil1" d="M56 53c0,2 4,-1 5,-1 3,-3 8,-10 5,-10 -1,0 -1,3 -4,6 -2,2 -3,3 -4,4 -1,0 -2,0 -2,1z"/>
   <path class="fil1" d="M66 40c2,1 2,0 2,-2 0,-1 1,-3 0,-3 -2,0 -1,1 -1,3 0,1 -1,1 -1,2z"/>
  </g>
 </g>
</svg>
